<?xml version="1.0" standalone="no"?><!DOCTYPE svg PUBLIC "-//W3C//DTD SVG 1.1//EN" "http://www.w3.org/Graphics/SVG/1.1/DTD/svg11.dtd">
<svg t="1536549560484" class="icon" style="" viewBox="0 0 1024 1024" version="1.1" xmlns="http://www.w3.org/2000/svg" p-id="7921" xmlns:xlink="http://www.w3.org/1999/xlink" width="200" height="200">
	<defs>
		<style type="text/css"></style>
	</defs>
	<path d="M507.90627555 295.87683555c-141.54069333 0-256.29354667 114.72782222-256.29354666 256.26851556v314.88455111h516.23367111V552.14535111c0-141.54183111-114.72668445-256.26851555-256.26851555-256.26851556h-3.6716089z m-297.53571555 153.48622223c4.55111111-22.59854222-10.11029333-44.60316445-32.70883555-49.15427556l-120.85475556-24.25287111c-22.59854222-4.52494222-44.62933333 10.13532445-49.15427556 32.73386667a42.16604445 42.16604445 0 0 0-0.36067555 14.50666667c2.56 16.85845333 15.38503111 31.08067555 33.07064889 34.64760888l120.85475555 24.25287112c22.62357333 4.52608 44.62819555-10.10915555 49.15313778-32.73386667z m-27.69351111-280.00483556l76.97749333 96.26510223c14.40085333 17.99623111 40.67214222 20.91918222 58.69454223 6.5171911 17.99623111-14.40312889 20.91804445-40.67441778 6.51605333-58.69568l-77.00138667-96.24120888c-14.37582222-17.99509333-40.64711111-20.91804445-58.66951111-6.54108445-12.10140445 9.67111111-17.37614222 24.66816-15.20412445 38.94044445a41.30816 41.30816 0 0 0 8.68807112 19.75523555z m332.288 36.40775111c23.06389333 0.54272 42.17287111-17.71292445 42.71445333-40.75064888l-0.28444444-123.23498667c0.54385778-23.03886222-17.71178667-42.17287111-40.74951111-42.71559111-23.06503111-0.54272-42.19904 17.71292445-42.74289778 40.75064888l0.28444444 123.23271112c-0.0512 2.48376889 0.10353778 4.94023111 0.46648889 7.31932444 2.99918222 19.64942222 19.75523555 34.93205333 40.31146667 35.39854222z m193.28 75.55299556c17.29991111 15.23029333 43.69863111 13.55093333 58.92892444-3.74897778l81.42392889-92.54115556c15.23029333-17.32494222 13.54865778-43.69863111-3.74897777-58.92892444-17.32494222-15.23029333-43.69863111-13.54865778-58.92892445 3.74897778l-81.44782222 92.54343111c-8.48213333 9.64380445-11.71456 22.10702222-9.92938667 33.89667555 1.41994667 9.36049778 6.04842667 18.28181333 13.70225778 25.03111112z m303.9232 151.00586666c-3.46567111-22.80675555-24.76942222-38.47623111-47.55114667-34.98666666l-121.86282667 18.54008889c-22.80675555 3.46453333-38.47509333 24.74439111-35.01169777 47.55114667 3.46567111 22.80448 24.77169778 38.47395555 47.57731555 35.00942222l121.83779556-18.56398222c22.80561778-3.46453333 38.47395555-24.74666667 35.00942222-47.55114667zM859.01539555 962.56910222c0 32.86357333-26.63196445 59.47164445-59.49781333 59.47164445H206.85482667c-32.86584889 0-59.49781333-26.60807111-59.49781334-59.47164445 0-32.86357333 26.63196445-59.47164445 59.49781334-59.47164444h592.66389333c32.86584889 0 59.49781333 26.60807111 59.49781333 59.47164444z" fill="#F5675D" p-id="7922"></path>
</svg>