<?xml version="1.0" standalone="no"?><!DOCTYPE svg PUBLIC "-//W3C//DTD SVG 1.1//EN" "http://www.w3.org/Graphics/SVG/1.1/DTD/svg11.dtd">
<svg t="1536545834567" class="icon" style="fill:#6D6D6D" viewBox="0 0 1024 1024" version="1.1" xmlns="http://www.w3.org/2000/svg" p-id="3451" xmlns:xlink="http://www.w3.org/1999/xlink" width="200" height="200">
	<defs>
		<style type="text/css"></style>
	</defs>
	<path d="M512 96c-256 0-384 96-384 96l32 192 64 32 32 128s128 48 256 48 256-48 256-48l32-128 64-32 32-192S768 96 512 96z m294.229 245.332l-34.85 17.425-26.328 13.164-7.139 28.557-5.864 23.456a1310.59 1310.59 0 0 0-30.549-5.78l-14.213 61.561a1349.074 1349.074 0 0 1 29.506 5.239l-2.329 9.318C671.65 507.258 590.912 528 512 528s-159.65-20.742-202.462-33.728l-2.329-9.318c8.938-1.69 18.829-3.466 29.506-5.239l-14.213-61.561a1315.868 1315.868 0 0 0-30.549 5.78l-5.864-23.456-7.139-28.557-26.328-13.164-34.85-17.425-19.414-116.487c13.692-6.895 31.692-15.001 53.93-23.064 33.406-12.112 69.72-21.766 107.931-28.693C408.125 164.404 459.192 160 512 160s103.875 4.404 151.782 13.088c38.211 6.927 74.524 16.581 107.931 28.693 22.238 8.063 40.238 16.169 53.93 23.064l-19.414 116.487z" p-id="3452"></path>
	<path d="M607.724 469.01a1229.66 1229.66 0 0 1 47.845 5.828l14.291-61.9a1262.01 1262.01 0 0 0-54.93-7.173l-7.206 63.245zM528 464c16.116 0.323 32.144 1.11 47.833 2.237l7.23-63.458c-17.978-1.418-36.464-2.407-55.063-2.779v64zM354.14 412.938l14.291 61.9a1229.896 1229.896 0 0 1 47.845-5.828l-7.206-63.245a1260.468 1260.468 0 0 0-54.93 7.173zM448.167 466.237c15.689-1.127 31.718-1.915 47.833-2.237v-64c-18.599 0.372-37.085 1.361-55.063 2.779l7.23 63.458zM537.716 773.479c-3.124-2.511-6.345-4.887-9.538-7.243-21.644-15.936-37.28-27.453-7.063-79.794 0.107-0.187 0.166-0.389 0.259-0.578 0.172-0.352 0.352-0.701 0.48-1.069 0.104-0.296 0.16-0.595 0.233-0.896 0.075-0.305 0.164-0.606 0.208-0.919 0.044-0.322 0.044-0.643 0.058-0.964 0.011-0.303 0.037-0.604 0.021-0.91-0.019-0.333-0.084-0.655-0.138-0.983-0.047-0.289-0.075-0.578-0.147-0.865-0.103-0.393-0.254-0.766-0.406-1.145-0.075-0.188-0.112-0.38-0.198-0.565-0.011-0.024-0.03-0.044-0.042-0.07-0.196-0.407-0.445-0.784-0.699-1.164-0.103-0.155-0.186-0.331-0.298-0.479-0.209-0.278-0.471-0.521-0.711-0.778-0.196-0.206-0.373-0.435-0.585-0.622-0.189-0.169-0.417-0.301-0.622-0.456-0.305-0.229-0.603-0.47-0.93-0.662-0.033-0.018-0.059-0.044-0.089-0.063-0.254-0.143-0.52-0.226-0.778-0.345-0.285-0.129-0.557-0.275-0.851-0.377-0.371-0.13-0.746-0.204-1.121-0.287-0.236-0.051-0.464-0.12-0.702-0.155-0.394-0.056-1.177-0.07-1.177-0.07s-0.473-0.03-0.714-0.018a9.916 9.916 0 0 0-1.179 0.162c-0.231 0.039-0.464 0.06-0.692 0.118-0.452 0.113-0.886 0.28-1.317 0.456-0.143 0.058-0.289 0.083-0.429 0.148l-0.1 0.049c-0.054 0.025-0.105 0.053-0.161 0.081-41.865 19.5-54.46 44.744-57.637 62.502-4.016 22.465 4.661 46.944 23.215 65.482a917.847 917.847 0 0 0 4.701 4.642c15.764 15.467 35.38 34.717 34.758 57.669-0.413 15.268-10.093 31.346-28.765 47.794-0.07 0.06-0.117 0.134-0.184 0.197-0.273 0.252-0.51 0.528-0.748 0.807-0.182 0.213-0.371 0.419-0.532 0.643-0.193 0.271-0.352 0.558-0.517 0.847-0.147 0.262-0.303 0.516-0.427 0.787-0.13 0.29-0.221 0.59-0.323 0.891-0.096 0.287-0.203 0.567-0.271 0.861-0.075 0.313-0.107 0.632-0.152 0.954-0.037 0.292-0.084 0.581-0.095 0.877-0.011 0.315 0.014 0.627 0.033 0.942 0.018 0.317 0.033 0.629 0.084 0.944 0.044 0.28 0.124 0.555 0.193 0.833 0.088 0.349 0.18 0.697 0.31 1.037 0.033 0.088 0.042 0.176 0.077 0.259 0.042 0.104 0.121 0.178 0.168 0.28a9.632 9.632 0 0 0 1.169 1.944c0.1 0.127 0.18 0.268 0.285 0.392 0.039 0.046 0.065 0.099 0.107 0.146a9.613 9.613 0 0 0 1.785 1.536c0.168 0.116 0.35 0.197 0.524 0.301 0.576 0.34 1.17 0.618 1.793 0.833 0.23 0.079 0.454 0.158 0.69 0.22a9.9 9.9 0 0 0 2.387 0.351c0.035 0 0.07 0.014 0.107 0.014 0.193 0 0.389-0.044 0.585-0.056 0.394-0.023 0.79-0.041 1.184-0.113 0.187-0.035 0.369-0.104 0.555-0.151a9.474 9.474 0 0 0 1.226-0.366c0.042-0.016 0.082-0.021 0.124-0.037 59.341-24.038 75.671-55.044 78.916-76.819 4.012-26.874-9.409-55.654-35.897-76.98zM729.716 773.479c-3.124-2.511-6.345-4.887-9.538-7.243-21.644-15.936-37.28-27.453-7.063-79.794 0.107-0.187 0.166-0.389 0.259-0.578 0.172-0.352 0.352-0.701 0.48-1.069 0.104-0.296 0.16-0.595 0.233-0.896 0.075-0.305 0.164-0.606 0.208-0.919 0.044-0.322 0.044-0.643 0.058-0.964 0.011-0.303 0.037-0.604 0.021-0.91-0.019-0.333-0.084-0.655-0.138-0.983-0.047-0.289-0.075-0.578-0.147-0.865-0.103-0.393-0.254-0.766-0.406-1.145-0.075-0.188-0.112-0.38-0.198-0.565-0.011-0.024-0.03-0.044-0.042-0.07-0.196-0.407-0.445-0.784-0.699-1.164-0.103-0.155-0.186-0.331-0.298-0.479-0.209-0.278-0.471-0.521-0.711-0.778-0.196-0.206-0.373-0.435-0.585-0.622-0.189-0.169-0.417-0.301-0.622-0.456-0.305-0.229-0.603-0.47-0.93-0.662-0.033-0.018-0.058-0.044-0.089-0.063-0.254-0.143-0.52-0.226-0.778-0.345-0.285-0.129-0.557-0.275-0.851-0.377-0.371-0.13-0.746-0.204-1.121-0.287-0.236-0.051-0.464-0.12-0.702-0.155-0.394-0.056-1.177-0.07-1.177-0.07s-0.473-0.03-0.714-0.018a9.916 9.916 0 0 0-1.179 0.162c-0.231 0.039-0.464 0.06-0.692 0.118-0.452 0.113-0.886 0.28-1.317 0.456-0.143 0.058-0.289 0.083-0.429 0.148l-0.1 0.049c-0.054 0.025-0.105 0.053-0.161 0.081-41.865 19.5-54.46 44.744-57.637 62.502-4.016 22.465 4.661 46.944 23.215 65.482a917.847 917.847 0 0 0 4.701 4.642c15.764 15.467 35.38 34.717 34.758 57.669-0.413 15.268-10.093 31.346-28.765 47.794-0.07 0.06-0.117 0.134-0.184 0.197-0.273 0.252-0.51 0.528-0.748 0.807-0.182 0.213-0.371 0.419-0.532 0.643-0.193 0.271-0.351 0.558-0.517 0.847-0.147 0.262-0.303 0.516-0.427 0.787-0.13 0.29-0.221 0.59-0.323 0.891-0.096 0.287-0.203 0.567-0.271 0.861-0.075 0.313-0.107 0.632-0.152 0.954-0.037 0.292-0.084 0.581-0.095 0.877-0.011 0.315 0.014 0.627 0.033 0.942 0.019 0.317 0.033 0.629 0.084 0.944 0.044 0.28 0.124 0.555 0.193 0.833 0.088 0.349 0.18 0.697 0.31 1.037 0.033 0.088 0.042 0.176 0.077 0.259 0.042 0.104 0.121 0.178 0.168 0.28a9.632 9.632 0 0 0 1.169 1.944c0.1 0.127 0.18 0.268 0.285 0.392 0.039 0.046 0.065 0.099 0.107 0.146a9.613 9.613 0 0 0 1.785 1.536c0.168 0.116 0.35 0.197 0.525 0.301 0.576 0.34 1.17 0.618 1.792 0.833 0.23 0.079 0.454 0.158 0.69 0.22a9.9 9.9 0 0 0 2.387 0.351c0.035 0 0.07 0.014 0.107 0.014 0.193 0 0.389-0.044 0.585-0.056 0.394-0.023 0.79-0.041 1.184-0.113 0.187-0.035 0.369-0.104 0.555-0.151a9.474 9.474 0 0 0 1.226-0.366c0.042-0.016 0.082-0.021 0.124-0.037 59.341-24.038 75.671-55.044 78.916-76.819 4.012-26.874-9.409-55.654-35.897-76.98zM345.716 773.479c-3.124-2.511-6.345-4.887-9.538-7.243-21.644-15.936-37.28-27.453-7.063-79.794 0.107-0.187 0.166-0.389 0.259-0.578 0.172-0.352 0.352-0.701 0.48-1.069 0.104-0.296 0.16-0.595 0.233-0.896 0.075-0.305 0.164-0.606 0.208-0.919 0.044-0.322 0.044-0.643 0.058-0.964 0.011-0.303 0.037-0.604 0.021-0.91-0.019-0.333-0.084-0.655-0.138-0.983-0.047-0.289-0.075-0.578-0.147-0.865-0.103-0.393-0.254-0.766-0.406-1.145-0.075-0.188-0.112-0.38-0.198-0.565-0.011-0.024-0.03-0.044-0.042-0.07-0.196-0.407-0.445-0.784-0.699-1.164-0.103-0.155-0.186-0.331-0.298-0.479-0.209-0.278-0.471-0.521-0.711-0.778-0.196-0.206-0.373-0.435-0.585-0.622-0.189-0.169-0.417-0.301-0.622-0.456-0.305-0.229-0.603-0.47-0.93-0.662-0.033-0.018-0.059-0.044-0.089-0.063-0.254-0.143-0.52-0.226-0.778-0.345-0.285-0.129-0.557-0.275-0.851-0.377-0.371-0.13-0.746-0.204-1.121-0.287-0.236-0.051-0.464-0.12-0.702-0.155-0.394-0.056-1.177-0.07-1.177-0.07s-0.473-0.03-0.714-0.018a9.916 9.916 0 0 0-1.179 0.162c-0.231 0.039-0.464 0.06-0.692 0.118-0.452 0.113-0.886 0.28-1.317 0.456-0.143 0.058-0.289 0.083-0.429 0.148l-0.1 0.049c-0.054 0.025-0.105 0.053-0.161 0.081-41.865 19.5-54.46 44.744-57.637 62.502-4.016 22.465 4.661 46.944 23.215 65.482a917.847 917.847 0 0 0 4.701 4.642c15.764 15.467 35.38 34.717 34.758 57.669-0.413 15.268-10.093 31.346-28.765 47.794-0.07 0.06-0.117 0.134-0.184 0.197-0.273 0.252-0.51 0.528-0.748 0.807-0.182 0.213-0.371 0.419-0.532 0.643-0.193 0.271-0.352 0.558-0.517 0.847-0.147 0.262-0.303 0.516-0.427 0.787-0.13 0.29-0.221 0.59-0.323 0.891-0.096 0.287-0.203 0.567-0.271 0.861-0.075 0.313-0.107 0.632-0.152 0.954-0.037 0.292-0.084 0.581-0.095 0.877-0.011 0.315 0.014 0.627 0.033 0.942 0.018 0.317 0.033 0.629 0.084 0.944 0.044 0.28 0.124 0.555 0.193 0.833 0.088 0.349 0.18 0.697 0.31 1.037 0.033 0.088 0.042 0.176 0.077 0.259 0.042 0.104 0.121 0.178 0.168 0.28a9.632 9.632 0 0 0 1.169 1.944c0.1 0.127 0.18 0.268 0.285 0.392 0.039 0.046 0.065 0.099 0.107 0.146a9.613 9.613 0 0 0 1.785 1.536c0.168 0.116 0.35 0.197 0.524 0.301 0.576 0.34 1.17 0.618 1.793 0.833 0.23 0.079 0.454 0.158 0.69 0.22a9.9 9.9 0 0 0 2.387 0.351c0.035 0 0.07 0.014 0.107 0.014 0.193 0 0.389-0.044 0.585-0.056 0.394-0.023 0.79-0.041 1.184-0.113 0.187-0.035 0.369-0.104 0.555-0.151a9.474 9.474 0 0 0 1.226-0.366c0.042-0.016 0.082-0.021 0.124-0.037 59.341-24.038 75.671-55.044 78.916-76.819 4.012-26.874-9.409-55.654-35.897-76.98z" p-id="3453"></path>
</svg>