<?xml version="1.0" standalone="no"?><!DOCTYPE svg PUBLIC "-//W3C//DTD SVG 1.1//EN" "http://www.w3.org/Graphics/SVG/1.1/DTD/svg11.dtd"><svg class="icon" width="200px" height="200.00px" viewBox="0 0 1024 1024" version="1.1" xmlns="http://www.w3.org/2000/svg"><path d="M113.56 589.504h103.128v14.064c0 26.464 3.128 45.112 9.376 55.936 6.248 10.832 16.768 16.248 31.56 16.248 11.872 0 21.248-4.112 28.128-12.344 6.872-8.224 10.312-19.424 10.312-33.592 0-23.328-16.776-45.728-50.312-67.184a491.224 491.224 0 0 0-12.504-8.44 137.776 137.776 0 0 1-5.312-3.44c-45.208-30.416-73.336-53.328-84.376-68.752-7.92-11.664-13.96-24.792-18.128-39.376-4.168-14.576-6.248-30.512-6.248-47.816 0-42.08 12.184-75.104 36.56-99.064 24.376-23.952 57.912-35.936 100.624-35.936 46.456 0 81.92 11.776 106.408 35.312 24.48 23.544 36.72 57.608 36.72 102.184 0 1.872-0.112 4.488-0.312 7.816-0.208 3.336-0.312 5.936-0.312 7.816H297.936v-5.936c0-21.04-3.28-36.976-9.84-47.816-6.56-10.832-16.096-16.248-28.592-16.248-10.624 0-19.168 3.808-25.624 11.408-6.464 7.608-9.688 17.656-9.688 30.16 0 20.424 18.328 42.088 55 65 6.664 4.376 11.768 7.712 15.312 10 2.912 1.672 6.976 4.272 12.184 7.816 39.376 25 64.576 46.048 75.624 63.128 6.872 11.048 12.136 23.592 15.784 37.656 3.64 14.064 5.472 29.328 5.472 45.784 0 48.128-12.504 85.208-37.504 111.248-25 26.048-60.736 39.064-107.184 39.064-48.752 0-85.368-12.448-109.84-37.344-24.488-24.888-36.72-61.92-36.72-111.096 0-3.128 0.048-6.408 0.16-9.84 0.088-3.448 0.456-8.92 1.08-16.416zM464.184 752.624V271.376h262.504v93.44H577.312V452.32h138.44v96.872H577.312v203.44H464.184zM822.936 606.064c5.728-3.752 11.536-6.56 17.424-8.44s12.056-2.816 18.512-2.816c17.6 0 30.808 6.328 39.608 18.984s13.2 31.64 13.2 56.952c0 29.064-5.912 50.784-17.736 65.16s-29.712 21.56-53.672 21.56c-11.56 0-21.8-1.672-30.704-5a60.976 60.976 0 0 1-23.048-15.16c-7.088-7.504-12.056-17.712-14.92-30.624s-4.296-36.304-4.296-70.16c0-28.024 0.76-48.464 2.264-61.328s4.088-23.256 7.736-31.168c5-10.936 13.024-19.272 24.064-25 11.04-5.728 24.432-8.592 40.16-8.592 21.04 0 37.4 5.336 49.064 16.016 11.664 10.68 17.504 25.6 17.504 44.768v1.56h-51.096c-0.208-7.6-1.664-13.28-4.376-17.032s-6.72-5.624-12.032-5.624c-6.464 0-11.072 2.864-13.832 8.592s-4.144 15.832-4.144 30.312c0 4.48 0.024 7.888 0.08 10.232s0.136 4.616 0.24 6.808z m-1.56 70.464c0 14.584 1.464 24.84 4.376 30.784s7.864 8.904 14.84 8.904c6.152 0 10.472-2.864 12.968-8.592s3.752-16.464 3.752-32.184c0-15.312-1.384-25.808-4.144-31.488s-7.576-8.512-14.456-8.512c-6.352 0-10.832 2.944-13.44 8.832s-3.896 16.632-3.896 32.256z" fill="#d4237a" /></svg>