<?xml version="1.0" standalone="no"?><!DOCTYPE svg PUBLIC "-//W3C//DTD SVG 1.1//EN" "http://www.w3.org/Graphics/SVG/1.1/DTD/svg11.dtd"><svg class="icon" width="200px" height="200.00px" viewBox="0 0 1024 1024" version="1.1" xmlns="http://www.w3.org/2000/svg"><path d="M794.65480246 777.87556123c0-13.95127923 1.5553791-27.85542575 4.71327-41.47677609 2.9222274-12.82009443 7.49409931-25.16886185 13.66848303-36.76350607 6.50431262-12.06597121 14.23407545-23.47208465 23.09502306-33.93554406 10.08639781-12.01883853 20.97405153-23.33068654 32.52156305-33.93554407l27.33696607-25.45165805c6.50431262-5.60879132 12.49016551-11.73604233 17.91042602-18.38175304 4.1948103-5.18459701 7.68263012-10.88765372 10.36919402-16.96777203 2.63943121-5.84445481 4.38334111-12.01883853 5.18459702-18.38175305a201.2566294 201.2566294 0 0 0 0-22.62369603 33.41708436 33.41708436 0 0 0-32.99289006-41.47677607 30.63625506 30.63625506 0 0 0-31.57890908 19.32440703c-2.82796201 6.59857803-4.5718719 13.57421762-5.184597 20.73838804v24.98033104h-65.04312613v-11.31184801a96.95196411 96.95196411 0 0 1 24.98033105-71.64170415 107.46255621 107.46255621 0 0 1 78.71160915-24.98033106 105.62438091 105.62438091 0 0 1 75.41232016 23.56635005c17.20343554 18.05182415 26.06438315 42.51369548 24.50900405 67.39976114 0.0471327 9.94499971-0.8955213 19.93713215-2.82796203 29.69360105-1.885308 9.14374383-4.90180081 18.00469143-8.955213 26.39431207-4.33620841 8.95521301-9.70933622 17.34483364-16.02511804 24.98033104a240.84809747 240.84809747 0 0 1-24.03767704 24.50900404l-37.70616007 34.87819808a142.71781587 142.71781587 0 0 0-23.56635006 26.39431204 78.24028214 78.24028214 0 0 0-10.84052101 22.62369607h125.84430925v51.84597009h-205.49857241z m-693.79334538-152.2386213c-0.14139811 11.54751152 0.8012559 23.04789036 2.82796201 34.40687106 1.6496445 9.42654002 5.51452591 18.28748764 11.31184804 25.92298506 5.89158752 7.25843582 13.47995222 12.96149253 22.15236903 16.49644503 11.07618453 4.38334111 22.95362495 6.45717993 34.87819807 6.12725101 17.15630283 0.6598578 33.93554407-5.04319891 47.13270008-16.02511803 13.99841193-12.67869632 21.30398045-31.15471475 19.79573405-49.9606621a89.41073206 89.41073206 0 0 0-4.71327-31.10758205 61.74383713 61.74383713 0 0 0-16.02511804-23.56635006 113.40127643 113.40127643 0 0 0-29.69360108-19.32440704 430.65148076 430.65148076 0 0 0-47.13270007-17.91042604 391.29567617 391.29567617 0 0 1-62.68649112-26.39431204 168.87646444 168.87646444 0 0 1-44.30473809-33.46421708 119.85845635 119.85845635 0 0 1-25.92298506-44.30473809 187.49388097 187.49388097 0 0 1-8.48388601-58.4445481 150.4475787 150.4475787 0 0 1 44.30473808-119.24573125 178.30300446 178.30300446 0 0 1 122.07369325-39.12014106c22.57656335-0.18853081 45.05886129 2.49803311 66.92843413 8.01255899 19.18300894 4.71327001 37.14056769 13.38568684 52.7886241 25.45165806 15.31812754 12.58443092 27.28983335 28.79807977 34.87819807 47.13270011 8.71954951 20.87978614 12.91435982 43.36208409 12.25450203 65.98578012v15.08246404h-104.16326721a107.9338832 107.9338832 0 0 0-13.66848304-59.38720213 49.96066209 49.96066209 0 0 0-47.13270009-20.73838805 75.83651445 75.83651445 0 0 0-30.16492804 5.18459702 50.90331611 50.90331611 0 0 0-19.32440704 14.13981003 47.3212309 47.3212309 0 0 0-9.89786702 19.79573404 104.63459421 104.63459421 0 0 0-2.82796202 23.56635006c-0.56559241 14.65826974 3.01649281 29.22227406 10.36919402 41.94810306 12.16023662 14.94106593 28.60954895 25.78158694 47.13270011 31.10758207l83.89620616 36.29217908c17.81616063 7.49409931 34.73679996 17.01490473 50.4319891 28.27962006 12.01883853 8.76668222 22.52943066 19.41867244 31.10758207 31.57890904 7.68263012 11.26471532 13.15002333 23.89627894 16.02511802 37.23483309 3.34642171 15.50665834 4.90180081 31.29611285 4.71327 47.13270009a148.5622707 148.5622707 0 0 1-47.13270008 123.95900125 217.75307444 217.75307444 0 0 1-137.62748428 38.64881406 180.04691435 180.04691435 0 0 1-131.50023325-40.06279507 156.00923731 156.00923731 0 0 1-39.59146809-114.53246123v-21.68104203h108.40521022v16.02511802l-1.41398101-4.241943z m298.82131861-229.53624947a248.67212569 248.67212569 0 0 1 24.98033104-88.60947617 141.39810029 141.39810029 0 0 1 55.61658611-57.5018941 238.63286058 238.63286058 0 0 1 194.65805138 0c23.18928845 13.29142143 42.18376658 32.89862467 54.67393211 56.5592401 13.71561572 27.76116034 22.19950175 57.78469031 24.98033105 88.60947619a1129.29949424 1129.29949424 0 0 1 0 225.76563343 250.1803721 250.1803721 0 0 1-24.98033105 88.13814918 131.97156027 131.97156027 0 0 1-55.61658611 56.55924011 251.2172915 251.2172915 0 0 1-194.65805138 0 132.25435646 132.25435646 0 0 1-55.61658611-56.55924011 248.2007987 248.2007987 0 0 1-24.98033106-88.13814918 1130.47781173 1130.47781173 0 0 1 0.94265402-224.82297945z m105.57724819 205.02724541c0.94265401 20.92691885 4.43047379 41.66530689 10.36919403 61.74383712 3.770616 13.66848304 11.68890963 25.87585234 22.62369604 34.87819808a74.46966615 74.46966615 0 0 0 77.76895516 0c10.93478642-9.00234572 18.85308003-21.20971504 22.62369604-34.87819808 5.98585292-20.07853024 9.47367273-40.81691829 10.36919403-61.74383712 1.885308-25.45165805 2.82796201-56.88916902 2.82796198-94.26540018s-0.94265401-68.81374213-2.82796198-94.26540019a258.75852351 258.75852351 0 0 0-10.36919403-61.74383712 69.00227294 69.00227294 0 0 0-22.62369604-34.87819807 74.46966615 74.46966615 0 0 0-77.76895516 0c-10.93478642 9.00234572-18.85308003 21.20971504-22.62369604 34.87819807a263.56605893 263.56605893 0 0 0-10.36919403 61.74383712c-1.885308 25.12172916-2.82796201 56.55924012-2.827962 94.26540019s0.61272509 69.14367103 1.885308 94.26540018h0.942654z" fill="#d4237a" /></svg>