<?xml version="1.0" standalone="no"?><!DOCTYPE svg PUBLIC "-//W3C//DTD SVG 1.1//EN" "http://www.w3.org/Graphics/SVG/1.1/DTD/svg11.dtd">
<svg class="icon" style="fill:#D29E0E" width="200px" height="200.00px" viewBox="0 0 1024 1024" version="1.1" xmlns="http://www.w3.org/2000/svg">
	<path d="M773.632 293.888h104.96v39.936h-104.96zM773.632 227.328h87.552v39.936h-87.552zM773.632 360.448h87.552v39.936h-87.552zM773.632 160.768h125.952v39.936h-125.952zM773.632 427.008h125.952v39.936h-125.952zM605.184 793.6c-77.312 0-140.8-62.976-140.8-140.288 0-10.24 1.024-20.48 3.584-30.208-12.288-3.584-25.088-7.168-37.376-11.776-3.072 13.312-5.12 27.648-5.12 41.984 0 98.816 80.384 179.2 179.2 179.2 88.576 0 162.304-64 176.64-148.48-11.776-2.56-24.576-5.12-37.888-7.68-10.752 66.048-68.608 117.248-138.24 117.248z" />
	<path d="M506.368 632.832c-1.536 6.656-2.048 13.312-2.048 19.968 0 55.296 45.056 100.352 100.352 100.352 49.664 0 91.136-36.352 99.328-83.968-8.704-1.536-17.92-3.072-27.136-4.608-53.76-8.192-111.616-17.408-170.496-31.744zM625.664 537.088V250.88c0-13.312-10.752-23.552-23.552-23.552S578.56 238.08 578.56 250.88v287.744c-22.528 6.144-41.472 19.968-54.784 38.4 55.296 13.312 109.568 22.016 160.256 29.696 6.144 1.024 12.8 2.048 18.944 3.072-10.24-36.352-39.936-65.024-77.312-72.704z" />
	<path d="M698.88 482.304V217.088c0-53.76-43.52-97.28-97.28-97.28s-97.28 43.52-97.28 97.28v269.824c-25.088 17.408-46.08 40.448-59.904 68.096 12.8 4.096 25.088 8.192 37.888 11.776 6.144-10.752 13.312-20.48 22.016-29.184 11.264-11.776 25.088-21.504 39.936-28.672v-291.84c0-31.744 25.6-57.344 57.344-57.344s57.344 25.6 57.344 57.344v288.768c14.848 6.144 28.16 14.848 39.936 25.088 24.576 22.016 40.96 52.224 45.568 86.016 13.824 2.56 27.136 5.12 39.936 7.68-3.584-60.416-36.864-112.64-85.504-142.336z" />
	<path d="M933.888 756.224c-1.536-47.104-28.672-80.896-82.944-102.912-20.992-8.704-45.568-15.36-72.192-20.992-12.8-2.56-26.112-5.12-39.936-7.68-13.312-2.56-27.648-4.608-41.984-7.168-6.144-1.024-12.288-2.048-18.944-3.072-50.688-8.192-104.96-16.896-160.256-29.696-13.312-3.072-27.136-6.656-40.448-10.752-12.8-3.584-25.6-7.68-37.888-11.776-23.552-7.68-47.104-16.896-70.144-27.136-71.68-32.256-72.192-49.664-72.192-50.176 0 0 6.144-20.48 100.864-38.4 43.008-8.192 86.016-12.288 101.888-13.824v-40.96c-12.8 1.024-59.904 5.12-109.056 14.336-85.504 16.384-128 38.912-133.632 71.68-7.68 42.496 50.688 74.24 95.744 94.72 24.064 10.752 48.64 20.48 73.216 28.16 12.288 4.096 25.088 8.192 37.376 11.776 12.8 3.584 25.6 7.168 38.4 10.24 58.88 14.336 116.736 23.552 170.496 32.256 9.216 1.536 18.432 3.072 27.136 4.608 13.824 2.048 27.136 4.608 39.424 6.656 13.312 2.56 26.112 5.12 37.888 7.68 74.24 16.384 115.2 37.888 116.736 83.968 1.024 28.16-27.136 52.224-50.688 67.072-135.68 86.528-468.992 113.664-650.24 21.504l-18.432 36.352c84.992 43.52 198.144 62.464 311.808 62.464 147.968 0 295.424-32.256 379.392-85.504 57.856-37.888 69.632-76.8 68.608-103.424zM161.792 792.576c5.12 3.584-10.24-1.536-10.24-2.56 0-0.512-2.048 2.56-2.048 2.56s4.608 9.728 11.776 20.48 14.848 19.968 14.848 19.968l3.072-3.584s-22.528-29.184-22.016-30.72c0.512-1.536 10.24 1.536 11.264-2.56-7.168-10.752-28.16-43.008-26.624-48.64-2.048-2.048-5.12 0.512-5.12 0.512s19.968 40.96 25.088 44.544zM99.84 776.192c-0.512 1.536 14.848 18.944 17.92 21.504 2.56 2.048 20.992 17.92 20.992 17.92l3.072-4.608s-28.16-22.528-29.184-25.6c-0.512-3.072 5.632 0.512 6.144-1.024 0.512-1.536-23.04-30.72-23.04-30.72l-4.608 2.56 14.848 16.896c0 0.512-5.632 1.536-6.144 3.072zM99.84 835.072l-3.072-3.072 25.088 12.288s2.048-1.024 2.56-3.072c0.512-1.536-29.696-19.456-38.912-18.944-2.56 2.048-1.536 2.048-0.512 4.608 0.512 1.536 3.584 4.096 3.584 4.096s-27.648-6.144-28.16-4.096c-0.512 2.048 0 5.12 0 5.12s32.768 4.096 35.328 6.144c2.56 1.536 5.632-1.536 4.096-3.072zM111.616 860.672c-6.656 0.512-2.048 3.584-1.536 5.12 2.048 2.048 9.728 4.096 9.728 4.096s-40.96 1.536-41.472 3.072c-0.512 1.536 1.536 5.12 1.536 5.12l46.592-3.584s6.656-1.536 4.608-3.584c-2.048-2.048-5.632-4.096-5.632-4.096l28.672 8.192 1.536-5.12s-34.304-9.728-44.032-9.216zM134.656 848.384c-2.048 1.536-0.512 3.072 0.512 3.072 0.512 0 17.408 0.512 30.208 7.68 4.608 1.536 1.536-2.048 1.536-2.048s-29.184-9.728-32.256-8.704zM132.096 832c-5.632-0.512 0 3.072 0 3.072s27.648 11.776 35.84 19.968c2.56 1.536 3.584 1.024 2.048-1.536s-24.064-18.944-37.888-21.504zM129.536 821.76c-3.584-1.024-3.584 0.512-1.024 2.56 26.112 13.312 40.448 26.624 41.984 27.136 1.536 0.512 2.048-1.024 1.536-1.536-0.512 0-31.744-27.136-42.496-28.16zM175.104 845.312S158.72 824.32 158.72 823.808c0-0.512-3.072-1.024-3.072 0.512 0.512 1.536 16.384 23.04 16.896 23.04 1.024 0 2.56-2.048 2.56-2.048z"/>
</svg>