<?xml version="1.0" encoding="utf-8"?>
<!-- Generator: Adobe Illustrator 22.1.0, SVG Export Plug-In . SVG Version: 6.00 Build 0)  -->
<svg version="1.1" id="图层_1" xmlns="http://www.w3.org/2000/svg" xmlns:xlink="http://www.w3.org/1999/xlink" x="0px" y="0px"
	 viewBox="0 0 200 200" style="enable-background:new 0 0 200 200;" xml:space="preserve">
<style type="text/css">
	.st0{fill:#D29E0E;}
</style>
<path class="st0" d="M144.6,63h18v6.9h-18V63z M144.6,51.6h15v6.9h-15V51.6z M144.6,74.5h15v6.9h-15V74.5z M144.6,40.2h21.6V47
	h-21.6V40.2z M144.6,85.9h21.6v6.9h-21.6V85.9z M115.6,148.8c-13.3,0-24.2-10.8-24.2-24.1c0-1.8,0.2-3.5,0.6-5.2
	c-2.1-0.6-4.3-1.2-6.4-2c-0.5,2.3-0.9,4.7-0.9,7.2c0,17,13.8,30.8,30.8,30.8c15.2,0,27.9-11,30.3-25.5c-2-0.4-4.2-0.9-6.5-1.3
	C137.5,140,127.6,148.8,115.6,148.8L115.6,148.8z"/>
<path class="st0" d="M98.7,121.2c-0.3,1.1-0.4,2.3-0.4,3.4c0,9.5,7.7,17.2,17.2,17.2c8.5,0,15.6-6.2,17.1-14.4
	c-1.5-0.3-3.1-0.5-4.7-0.8C118.7,125.3,108.8,123.7,98.7,121.2z M119.2,104.8V55.7c0-2.3-1.8-4-4-4c-2.2,0-4,1.8-4,4v49.4
	c-3.9,1.1-7.1,3.4-9.4,6.6c9.5,2.3,18.8,3.8,27.5,5.1c1.1,0.2,2.2,0.4,3.3,0.5C130.7,111,125.6,106.1,119.2,104.8L119.2,104.8z"/>
<path class="st0" d="M131.7,95.4V49.9c0-9.2-7.5-16.7-16.7-16.7s-16.7,7.5-16.7,16.7v46.3c-4.3,3-7.9,6.9-10.3,11.7
	c2.2,0.7,4.3,1.4,6.5,2c1.1-1.8,2.3-3.5,3.8-5c1.9-2,4.3-3.7,6.9-4.9V49.9c0-5.4,4.4-9.8,9.8-9.8s9.8,4.4,9.8,9.8v49.6
	c2.5,1.1,4.8,2.5,6.9,4.3c4.2,3.8,7,9,7.8,14.8c2.4,0.4,4.7,0.9,6.9,1.3C145.8,109.4,140.1,100.5,131.7,95.4L131.7,95.4z"/>
<path class="st0" d="M172.1,142.4c-0.3-8.1-4.9-13.9-14.2-17.7c-3.6-1.5-7.8-2.6-12.4-3.6c-2.2-0.4-4.5-0.9-6.9-1.3
	c-2.3-0.4-4.7-0.8-7.2-1.2c-1.1-0.2-2.1-0.4-3.3-0.5c-8.7-1.4-18-2.9-27.5-5.1c-2.3-0.5-4.7-1.1-6.9-1.8c-2.2-0.6-4.4-1.3-6.5-2
	c-4-1.3-8.1-2.9-12-4.7c-12.3-5.5-12.4-8.5-12.4-8.6c0,0,1.1-3.5,17.3-6.6c7.4-1.4,14.8-2.1,17.5-2.4v-7c-2.2,0.2-10.3,0.9-18.7,2.5
	c-14.7,2.8-22,6.7-22.9,12.3c-1.3,7.3,8.7,12.7,16.4,16.3c4.1,1.8,8.4,3.5,12.6,4.8c2.1,0.7,4.3,1.4,6.4,2c2.2,0.6,4.4,1.2,6.6,1.8
	c10.1,2.5,20,4,29.3,5.5c1.6,0.3,3.2,0.5,4.7,0.8c2.4,0.4,4.7,0.8,6.8,1.1c2.3,0.4,4.5,0.9,6.5,1.3c12.7,2.8,19.8,6.5,20,14.4
	c0.2,4.8-4.7,9-8.7,11.5c-23.3,14.9-80.5,19.5-111.6,3.7l-3.2,6.2c14.6,7.5,34,10.7,53.5,10.7c25.4,0,50.7-5.5,65.1-14.7
	C170.2,153.7,172.2,147,172.1,142.4L172.1,142.4z M39.5,148.7c0.9,0.6-1.8-0.3-1.8-0.4c0-0.1-0.4,0.4-0.4,0.4s0.8,1.7,2,3.5
	s2.5,3.4,2.5,3.4l0.5-0.6c0,0-3.9-5-3.8-5.3c0.1-0.3,1.8,0.3,1.9-0.4c-1.2-1.8-4.8-7.4-4.6-8.4c-0.4-0.4-0.9,0.1-0.9,0.1
	S38.6,148,39.5,148.7L39.5,148.7z M28.9,145.8c-0.1,0.3,2.5,3.3,3.1,3.7c0.4,0.4,3.6,3.1,3.6,3.1l0.5-0.8c0,0-4.8-3.9-5-4.4
	c-0.1-0.5,1,0.1,1.1-0.2c0.1-0.3-4-5.3-4-5.3l-0.8,0.4l2.5,2.9C29.9,145.4,29,145.6,28.9,145.8L28.9,145.8z M28.9,155.9l-0.5-0.5
	l4.3,2.1c0,0,0.4-0.2,0.4-0.5c0.1-0.3-5.1-3.3-6.7-3.3c-0.4,0.4-0.3,0.4-0.1,0.8c0.1,0.3,0.6,0.7,0.6,0.7s-4.7-1.1-4.8-0.7
	c-0.1,0.4,0,0.9,0,0.9s5.6,0.7,6.1,1.1C28.6,156.7,29.2,156.2,28.9,155.9L28.9,155.9z M30.9,160.3c-1.1,0.1-0.4,0.6-0.3,0.9
	c0.4,0.4,1.7,0.7,1.7,0.7s-7,0.3-7.1,0.5s0.3,0.9,0.3,0.9l8-0.6c0,0,1.1-0.3,0.8-0.6c-0.4-0.4-1-0.7-1-0.7l4.9,1.4l0.3-0.9
	C38.5,161.9,32.6,160.3,30.9,160.3L30.9,160.3z M34.9,158.2c-0.4,0.3-0.1,0.5,0.1,0.5c0.1,0,3,0.1,5.2,1.3c0.8,0.3,0.3-0.4,0.3-0.4
	S35.4,158.1,34.9,158.2L34.9,158.2z M34.4,155.4c-1-0.1,0,0.5,0,0.5s4.7,2,6.2,3.4c0.4,0.3,0.6,0.2,0.4-0.3
	C40.7,158.7,36.8,155.9,34.4,155.4z M34,153.7c-0.6-0.2-0.6,0.1-0.2,0.4c4.5,2.3,6.9,4.6,7.2,4.7c0.3,0.1,0.4-0.2,0.3-0.3
	C41.2,158.5,35.8,153.8,34,153.7z M41.8,157.7c0,0-2.8-3.6-2.8-3.7c0-0.1-0.5-0.2-0.5,0.1c0.1,0.3,2.8,4,2.9,4
	C41.5,158.1,41.8,157.7,41.8,157.7z"/>
</svg>
