<?xml version="1.0" standalone="no"?><!DOCTYPE svg PUBLIC "-//W3C//DTD SVG 1.1//EN" "http://www.w3.org/Graphics/SVG/1.1/DTD/svg11.dtd"><svg t="1536549158418" class="icon" style="" viewBox="0 0 1024 1024" version="1.1" xmlns="http://www.w3.org/2000/svg" p-id="7197" xmlns:xlink="http://www.w3.org/1999/xlink" width="200" height="200"><defs><style type="text/css"></style></defs><path d="M753.371429 702.171429c-14.628571-12.190476-36.571429-7.314286-46.32381 9.752381l-4.87619 9.75238c-9.752381 19.504762-7.314286 43.885714 7.314285 58.514286l160.914286 138.971429c14.628571 12.190476 36.571429 7.314286 46.32381-9.752381l4.87619-9.752381c9.752381-19.504762 7.314286-43.885714-7.314286-58.514286l-160.914285-138.971428zM709.485714 295.009524c9.752381 19.504762 31.695238 24.380952 46.32381 9.752381l160.914286-138.971429c14.628571-12.190476 19.504762-39.009524 7.314285-58.514286l-4.87619-9.75238c-9.752381-19.504762-31.695238-24.380952-46.32381-9.752381l-160.914285 138.971428c-14.628571 12.190476-19.504762 39.009524-7.314286 58.514286l4.87619 9.752381zM982.552381 455.92381h-197.485714c-21.942857 0-41.447619 19.504762-41.447619 41.447619v12.190476c0 21.942857 17.066667 41.447619 41.447619 41.447619h197.485714c21.942857 0 41.447619-19.504762 41.447619-41.447619v-12.190476c0-9.752381-4.87619-21.942857-12.190476-29.257143-7.314286-7.314286-17.066667-12.190476-29.257143-12.190476zM526.628571 99.961905c-60.952381 48.761905-190.171429 119.466667-282.819047 187.733333l-2.438095 4.876191c-9.752381 7.314286-14.628571 24.380952-75.580953 24.380952H51.2c-29.257143 0-48.761905 14.628571-48.761905 46.323809v285.257143c0 31.695238 17.066667 48.761905 48.761905 48.761905h117.028571c58.514286 0 63.390476 17.066667 75.580953 24.380952l2.438095 4.876191c90.209524 68.266667 219.428571 143.847619 282.819048 190.171429 19.504762 14.628571 80.457143 60.952381 80.457143-29.257143V124.342857c-2.438095-90.209524-65.828571-39.009524-82.895239-24.380952z" fill="#1296db" p-id="7198"></path></svg>