<?xml version="1.0" standalone="no"?><!DOCTYPE svg PUBLIC "-//W3C//DTD SVG 1.1//EN" "http://www.w3.org/Graphics/SVG/1.1/DTD/svg11.dtd">
<svg class="icon" style="fill: #10a0f7" width="200px" height="200.00px" viewBox="0 0 1024 1024" version="1.1" xmlns="http://www.w3.org/2000/svg">
	<path d="M0 6.2464C0 4.6592 0.5632 3.072 1.6896 1.8432A5.5296 5.5296 0 0 1 5.7856 0h36.4544c1.4848 0 2.9696 0.6144 4.096 1.8432a6.5024 6.5024 0 0 1 1.6896 4.4032v965.6832H1018.368c1.4336 0 2.9184 0.6144 4.096 1.8432a6.5024 6.5024 0 0 1 1.6384 4.4032v39.5776a6.5024 6.5024 0 0 1-1.6896 4.4032 5.5296 5.5296 0 0 1-4.096 1.8432H0V6.2464z m352.0512 12.4928c0-4.7616 1.6896-9.5744 5.0688-13.2608A16.5888 16.5888 0 0 1 369.3568 0h157.3888c4.4544 0 8.8576 1.8432 12.288 5.4784a19.5584 19.5584 0 0 1 5.0176 13.312v883.712h-192V18.7904zM112.0256 279.0912c0-4.8128 1.6896-9.5744 5.0688-13.2608a16.5888 16.5888 0 0 1 12.2368-5.4784H286.72c4.4544 0 8.8576 1.8432 12.288 5.4784a19.5584 19.5584 0 0 1 5.0176 13.312v623.36h-192V279.0912z m480.0512 260.352c0-4.8128 1.6896-9.6256 5.0688-13.312a16.5888 16.5888 0 0 1 12.2368-5.4272h157.3888c4.4544 0 8.8576 1.792 12.288 5.4784a19.5584 19.5584 0 0 1 5.0176 13.2608v363.0592h-192v-363.0592z m245.0944-213.7088a16.5888 16.5888 0 0 1 12.2368-5.5296h157.3888c4.4544 0 8.8576 1.8432 12.288 5.5296a19.5584 19.5584 0 0 1 5.0176 13.2608v563.5072h-192V338.9952c0-4.8128 1.6896-9.6256 5.0688-13.312z" />
</svg>