<?xml version="1.0" standalone="no"?><!DOCTYPE svg PUBLIC "-//W3C//DTD SVG 1.1//EN" "http://www.w3.org/Graphics/SVG/1.1/DTD/svg11.dtd">
<svg class="icon" width="200px" height="200.00px" viewBox="0 0 1024 1024" version="1.1" xmlns="http://www.w3.org/2000/svg">
	<path d="M570.342185 70.217143v506.091204l1.147339 1.204706-340.128628 334.506667a475.17042 475.17042 0 0 0 307.142633 111.922913 477.407731 477.407731 0 0 0 477.465098-477.465098 477.178263 477.178263 0 0 0-445.626442-476.260392zM31.723922 561.737143a475.858824 475.858824 0 0 0 128.846162 295.497143l374.548796-295.497143H31.723922zM517.277759 0A509.303754 509.303754 0 0 0 7.974006 509.36112h509.303753V0z m53.064426 576.308347l-0.860504-0.975238-3.843586 3.040448h4.70409v-2.06521z m0 0" fill="#10a0f7" />
</svg>