<?xml version="1.0" standalone="no"?><!DOCTYPE svg PUBLIC "-//W3C//DTD SVG 1.1//EN" "http://www.w3.org/Graphics/SVG/1.1/DTD/svg11.dtd"><svg class="icon" width="200px" height="200.00px" viewBox="0 0 1024 1024" version="1.1" xmlns="http://www.w3.org/2000/svg"><path d="M920.702 374.4c0-8.174 0.548-16.459-0.548-24.503-4.586-33.634-28.5-48.395-59.488-35.185-17.924 7.643-34.223 19.042-51.436 28.418-20.338 11.078-34.155 25.967-28.622 51.02 5.089 23.037 21.971 30.583 43.733 31.347 4.246 0.148 8.39 3.27 12.656 5.05v304.94l-195.634 99.808c-64.485-33.797-125.013-66.145-186.101-97.4-102.99-52.69-67.922-52.18-167.72-0.265-31.555 16.415-62.757 33.504-103.59 55.351 0-93.887 0.589-177.09-0.273-260.28-0.378-36.565-2.784-70.417 40.93-88.648 21.997-9.173 25.116-36.926 13.227-54.788-12.94-19.438-31.964-22.62-51.813-14.05-17.899 7.73-34.112 19.269-51.548 28.187-23.008 11.766-31.925 29.873-31.797 55.617 0.646 129.177-0.285 258.368 0.554 387.543 0.356 54.702 26.166 68.634 76.27 42.395 53.568-28.05 107.22-56.068 159.493-86.409 22.466-13.042 40.011-13.482 62.99-0.692 67.102 37.334 136.127 71.204 203.468 108.123 25.722 14.103 47.324 13.676 73.21-0.386 66.038-35.87 133.022-70.115 200.667-102.86 30.594-14.81 42.416-35.277 41.98-69.322-1.55-120.986-0.586-242.006-0.608-363.012zM477.76 610.843c25.536 24.327 42.17 23.983 67.997-0.462 58.478-55.355 110.819-116.198 143.309-190.655 14.76-33.824 21.94-70.95 32.56-106.58-4.346-106.028-75.181-189.923-178.81-206.842-98.75-16.12-195.158 42.508-226.313 138.34-17.45 53.674-11.594 106.581 9.436 157.951 33.478 81.767 88.723 148.138 151.821 208.248z m39.706-423.286c70.226 3.02 124.982 65.343 115.768 135.939-9.384 71.895-47.925 130.937-92.483 185.71-15.413 18.944-38.092 17.682-56.635 2.386-39.792-32.826-94.278-147.945-94.546-199.754-0.372-72.266 56.323-127.357 127.896-124.281z" fill="#1296db" /></svg>