<?xml version="1.0" encoding="utf-8"?>
<!-- Generator: Adobe Illustrator 22.1.0, SVG Export Plug-In . SVG Version: 6.00 Build 0)  -->
<svg version="1.1" id="图层_1" xmlns="http://www.w3.org/2000/svg" xmlns:xlink="http://www.w3.org/1999/xlink" x="0px" y="0px"
	 viewBox="0 0 200 200" style="enable-background:new 0 0 200 200;" xml:space="preserve">
<style type="text/css">
	.st0{fill:#F5675D;}
</style>
<path class="st0" d="M99.3,67.4C78,67.4,60.7,84.7,60.7,106v47.4h77.7V106c0-21.3-17.3-38.6-38.6-38.6
	C99.8,67.4,99.3,67.4,99.3,67.4z M54.5,90.5c0.7-3.4-1.5-6.7-4.9-7.4l-18.2-3.7C28,78.8,24.7,81,24,84.4c-0.1,0.7-0.2,1.5-0.1,2.2
	c0.4,2.5,2.3,4.7,5,5.2l18.2,3.7C50.5,96.1,53.8,93.9,54.5,90.5z M50.3,48.4l11.6,14.5c2.2,2.7,6.1,3.1,8.8,1c2.7-2.2,3.1-6.1,1-8.8
	L60.1,40.5c-2.2-2.7-6.1-3.1-8.8-1c-1.8,1.5-2.6,3.7-2.3,5.9C49.2,46.5,49.6,47.5,50.3,48.4L50.3,48.4z M100.3,53.8
	c3.5,0.1,6.3-2.7,6.4-6.1l0-18.6c0.1-3.5-2.7-6.3-6.1-6.4c-3.5-0.1-6.4,2.7-6.4,6.1l0,18.6c0,0.4,0,0.7,0.1,1.1
	C94.7,51.5,97.3,53.8,100.3,53.8L100.3,53.8z M129.4,65.2c2.6,2.3,6.6,2,8.9-0.6l12.3-13.9c2.3-2.6,2-6.6-0.6-8.9
	c-2.6-2.3-6.6-2-8.9,0.6l-12.3,13.9c-1.3,1.5-1.8,3.3-1.5,5.1C127.6,62.8,128.3,64.2,129.4,65.2L129.4,65.2z M175.2,87.9
	c-0.5-3.4-3.7-5.8-7.2-5.3l-18.3,2.8c-3.4,0.5-5.8,3.7-5.3,7.2c0.5,3.4,3.7,5.8,7.2,5.3l18.3-2.8C173.4,94.6,175.7,91.4,175.2,87.9
	L175.2,87.9z M152.1,167.8c0,4.9-4,9-9,9H54c-4.9,0-9-4-9-9s4-9,9-9h89.2C148.1,158.8,152.1,162.8,152.1,167.8L152.1,167.8z"/>
</svg>
