<?xml version="1.0" standalone="no"?><!DOCTYPE svg PUBLIC "-//W3C//DTD SVG 1.1//EN" "http://www.w3.org/Graphics/SVG/1.1/DTD/svg11.dtd"><svg t="1536548567190" class="icon" style="" viewBox="0 0 1024 1024" version="1.1" xmlns="http://www.w3.org/2000/svg" p-id="5764" xmlns:xlink="http://www.w3.org/1999/xlink" width="200" height="200"><defs><style type="text/css"></style></defs><path d="M143.947 559.295l-58.911-11.502c-9.461-1.846-18.655 4.331-20.501 13.775a18.045 18.045 0 0 0-0.32 3.37v378.386l93.86-33.014V788.405c0-9.655 7.81-17.464 17.466-17.464h125.241c5.573 0 10.827-2.698 14.111-7.171l65.993-90.239c5.697-7.811 4.011-18.742-3.782-24.425a20.61 20.61 0 0 0-2.005-1.276l-72.276-39.119c-8.483-4.615-19.099-1.422-23.695 7.027a18.966 18.966 0 0 0-1.243 2.913l-18.37 56.016a17.465 17.465 0 0 1-16.614 11.999h-67.342c-9.656 0-17.483-7.81-17.483-17.468v-92.759c-0.001-8.339-5.93-15.546-14.129-17.144z m806.397-11.894L282.126 105.119l-39.99-22.524c-7.775-4.384-17.607-2.201-22.808 5.058L68.12 299.334c-5.609 7.845-3.781 18.762 4.065 24.371 0.248 0.178 0.479 0.337 0.727 0.496L93.2 337.195l606.662 372.19c24.423 4.829 49.77-0.212 70.501-13.916l179.98-118.921c8.059-5.326 10.26-16.188 4.935-24.21-1.278-1.988-2.946-3.623-4.934-4.937z m-820.19-139.989l-25.772 34.896c-5.732 7.773-4.082 18.708 3.675 24.441 0.354 0.267 0.709 0.496 1.064 0.728l605.473 381.207c7.491 4.759 17.288 3.373 23.182-3.195l78.026-86.902c6.318-7.028 6.178-17.819-0.391-24.669l-1.883-1.992c-6.459-6.742-16.932-7.56-24.28-1.809l-53.888 41.747c-6.177 4.756-14.661 5.077-21.157 0.781l-560.37-369.439c-7.757-5.113-18.157-3.266-23.679 4.206z" fill="#006FC2" p-id="5765"></path></svg>