<?xml version="1.0" standalone="no"?><!DOCTYPE svg PUBLIC "-//W3C//DTD SVG 1.1//EN" "http://www.w3.org/Graphics/SVG/1.1/DTD/svg11.dtd">
<svg t="1536548777547" class="icon" style="fill:#429CE3" viewBox="0 0 1024 1024" version="1.1" xmlns="http://www.w3.org/2000/svg" p-id="6491" xmlns:xlink="http://www.w3.org/1999/xlink" width="200" height="200">
	<defs>
		<style type="text/css"></style>
	</defs>
	<path d="M377.856 762.88c-8.192 3.072-16.896 4.608-25.6 5.12l29.696 40.96c4.608 5.632 10.24 9.728 16.384 7.168 6.656-2.56 8.192-7.68 7.168-16.384l-6.144-50.176c-6.144 5.632-12.8 10.24-21.504 13.312M188.416 480.256l89.6 230.912c6.656 16.896 18.944 29.184 34.304 35.84 15.36 6.656 33.28 7.68 49.664 1.024 17.408-6.656 30.208-20.48 36.864-35.84 6.144-13.824 7.168-29.184 2.048-41.472l-92.16-237.568-120.32 47.104zM190.464 356.352L120.832 177.664c-3.584-9.216 1.024-18.944 10.752-22.528 9.216-3.584 19.456 0.512 23.04 9.728l69.632 178.688c3.584 8.704-1.536 18.944-10.752 22.528-2.048 1.024-4.608 1.024-6.656 1.024-7.168 0-13.824-4.096-16.384-10.752M111.616 103.424c-37.376 14.336-55.296 56.32-40.96 93.184l100.352 258.56 134.656-52.224L204.8 144.384c-11.264-28.672-38.4-46.08-67.584-46.08-8.704 0-17.408 1.536-25.6 5.12M543.232 692.736c-13.824 0-24.576 11.264-24.576 25.088s10.752 24.576 24.576 24.576h237.056c13.824 0 24.576-11.264 24.576-24.576 0-13.824-11.264-25.088-24.576-25.088h-237.056z" fill="" p-id="6492"></path>
	<path d="M310.272 184.32l24.064 61.44h521.216c22.528 0 41.472 18.944 41.472 41.984v529.92c0 22.528-18.944 41.984-41.472 41.984H268.8c-16.896 0-30.72 13.824-30.72 30.72s13.824 30.72 30.72 30.72h586.752c57.344 0 103.424-46.592 103.424-103.936V287.744c0-57.344-46.592-103.936-103.424-103.936H310.272z" fill="" p-id="6493"></path>
	<path d="M642.048 361.472c-13.824 0-24.576 11.264-24.576 24.576 0 13.824 11.264 25.088 24.576 25.088h138.24c13.824 0 24.576-11.264 24.576-25.088 0-13.312-10.752-24.576-24.576-24.576h-138.24zM489.472 527.36c-13.824 0-24.576 11.264-24.576 25.088s10.752 24.576 24.576 24.576h290.816c13.824 0 24.576-11.264 24.576-24.576 0-13.824-10.752-25.088-24.576-25.088H489.472z" fill="" p-id="6494"></path>
</svg>