<?xml version="1.0" standalone="no"?><!DOCTYPE svg PUBLIC "-//W3C//DTD SVG 1.1//EN" "http://www.w3.org/Graphics/SVG/1.1/DTD/svg11.dtd"><svg class="icon" width="200px" height="200.00px" viewBox="0 0 1024 1024" version="1.1" xmlns="http://www.w3.org/2000/svg"><path d="M659.2 620.8h256a32 32 0 1 1 0 64h-256v153.6a32 32 0 0 1-32 32H275.2a32 32 0 0 1-32-32V179.2a32 32 0 0 1 32-32h352a32 32 0 0 1 32 32v441.6z m-129.0688 0c-13.4784-30.1696-43.7504-51.2-78.9312-51.2-47.7184 0-86.4 38.6816-86.4 86.4S403.4816 742.4 451.2 742.4c37.6192 0 69.6256-24.0448 81.4848-57.6H460.8a32 32 0 1 1 0-64h69.3312zM390.4 249.6a32 32 0 0 0-32 32v185.6a32 32 0 0 0 32 32h128a32 32 0 0 0 32-32V281.6a32 32 0 0 0-32-32H390.4z" fill="#5c646f" /></svg>