<?xml version="1.0" encoding="utf-8"?>
<!-- Generator: Adobe Illustrator 22.1.0, SVG Export Plug-In . SVG Version: 6.00 Build 0)  -->
<svg version="1.1" id="图层_1" xmlns="http://www.w3.org/2000/svg" xmlns:xlink="http://www.w3.org/1999/xlink" x="0px" y="0px"
	 viewBox="0 0 200 200" style="enable-background:new 0 0 200 200;" xml:space="preserve">
<style type="text/css">
	.st0{fill:#03A9F4;}
</style>
<path class="st0" d="M155.8,151.4v-15.8h-20.9v-14h20.9v-20.9h-20.9v-14h20.9V65.8h-20.9v-14h20.9v-14h14v122.6
	c2.3,2.1,4.1,4,5.4,5.5l-10.7,8.9c-1.9-2.2-4-4.2-6.3-6c-4.3-3.5-8.5-5.4-11.6-5.4c-2.2,0-3.1,0.7-6.3,4.5c-5.6,6.7-9.5,9.5-17,9.5
	c-7.5,0-11.4-2.8-17-9.5c-3.1-3.8-4.1-4.5-6.3-4.5c-2.2,0-3.1,0.7-6.3,4.5c-5.6,6.7-9.5,9.5-17,9.5c-7.5,0-11.4-2.8-17-9.5
	c-3.1-3.8-4.1-4.5-6.3-4.5c-3.4,0-6.7,1.1-9.5,3.2c-1.7,1.2-2.9,2.4-3.3,3l-0.8,0.9c-2,1.9-3.6,3.6-4.6,4.6l-10.3-9.4
	c1.6-1.7,3.2-3.3,4.8-4.9c1.3-1.6,3.3-3.6,6-5.5c5-3.6,10.9-5.8,17.6-5.8c7.5,0,11.4,2.8,17,9.5c3.1,3.8,4.1,4.5,6.3,4.5
	c2.2,0,3.1-0.7,6.3-4.5c5.6-6.7,9.5-9.5,17-9.5c7.5,0,11.4,2.8,17,9.5c3.1,3.8,4.1,4.5,6.3,4.5c2.2,0,3.1-0.7,6.3-4.5
	c5.6-6.7,9.5-9.5,17-9.5C149.7,149.5,152.8,150.2,155.8,151.4L155.8,151.4z M72.1,128.6c-19.2,0-34.9-16-34.9-35.8
	c0-23.4,32.4-61.9,34.9-61.9c2.5,0,34.9,38.5,34.9,61.9C107,112.6,91.3,128.6,72.1,128.6z"/>
</svg>
