<?xml version="1.0" standalone="no"?><!DOCTYPE svg PUBLIC "-//W3C//DTD SVG 1.1//EN" "http://www.w3.org/Graphics/SVG/1.1/DTD/svg11.dtd">
<svg t="1536546237876" class="icon" style="" viewBox="0 0 1024 1024" version="1.1" xmlns="http://www.w3.org/2000/svg" p-id="5020" xmlns:xlink="http://www.w3.org/1999/xlink" width="200" height="200">
	<defs>
		<style type="text/css"></style>
	</defs>
	<path d="M853.333333 822.016V725.333333h-128v-85.333333h128v-128h-128v-85.333333h128V298.666667h-128V213.333333h128V128h85.333334v749.781333c14.037333 12.629333 25.173333 24.448 32.768 33.578667l-65.536 54.613333a309.248 309.248 0 0 0-38.314667-36.693333c-26.453333-21.12-51.797333-33.28-71.125333-33.28-13.226667 0-19.157333 4.266667-38.357334 27.306667-34.133333 40.96-57.813333 58.026667-103.893333 58.026666s-69.717333-17.066667-103.893333-58.026666c-19.2-23.04-25.130667-27.306667-38.314667-27.306667-13.226667 0-19.157333 4.266667-38.314667 27.306667-34.133333 40.96-57.856 58.026667-103.893333 58.026666-46.08 0-69.76-17.066667-103.893333-58.026666-19.2-23.04-25.173333-27.306667-38.357334-27.306667a98.133333 98.133333 0 0 0-57.941333 19.498667c-10.496 7.509333-17.493333 14.762667-20.224 18.432l-4.608 5.205333c-11.946667 11.477333-22.101333 21.973333-28.032 28.416l-62.805333-57.770667a823.253333 823.253333 0 0 1 29.525333-30.08c7.765333-9.685333 19.882667-21.717333 36.437333-33.536 30.72-22.058667 66.858667-35.498667 107.648-35.498666 46.08 0 69.76 17.066667 103.893334 58.026666 19.2 23.04 25.173333 27.306667 38.357333 27.306667 13.184 0 19.114667-4.266667 38.314667-27.306667C442.24 827.733333 465.92 810.666667 512 810.666667s69.76 17.066667 103.893333 58.026666c19.2 23.04 25.173333 27.306667 38.314667 27.306667 13.226667 0 19.157333-4.266667 38.357333-27.306667 34.133333-40.96 57.813333-58.026667 103.893334-58.026666 19.2 0 38.186667 4.010667 56.874666 11.349333zM341.333333 682.666667c-117.333333 0-213.333333-98.048-213.333333-218.709334C128 320.64 326.101333 85.333333 341.333333 85.333333c15.232 0 213.333333 235.306667 213.333334 378.624C554.666667 584.618667 458.666667 682.666667 341.333333 682.666667z" fill="#03A9F4" p-id="5021"></path>
</svg>