<?xml version="1.0" standalone="no"?><!DOCTYPE svg PUBLIC "-//W3C//DTD SVG 1.1//EN" "http://www.w3.org/Graphics/SVG/1.1/DTD/svg11.dtd">
<svg class="icon" style="fill: #03A9F4" width="200px" height="158.88px" viewBox="0 0 1289 1024" version="1.1" xmlns="http://www.w3.org/2000/svg">
	<path d="M366.848 580.224c-1.792-9.6-3.84-18.176-5.184-26.88-5.504-34.56-2.624-68.48 4.736-102.656a276.672 276.672 0 0 1 58.752-120.896c41.344-49.408 92.864-82.624 156.16-96.96a348.8 348.8 0 0 1 78.656-8.96c97.216 0.256 194.304-0.384 291.52 0.384 34.752 0.256 62.656 15.68 80 46.848 7.104 12.992 9.984 27.584 10.88 42.24 0.832 16.256 0.96 32.704 0.064 48.96-1.984 34.944-16.96 62.72-48.832 79.488-12.8 6.208-26.944 9.664-41.344 10.112-6.656 0.448-13.248 0.064-20.032 0.064 1.664 10.496 3.968 20.608 5.248 30.72 4.16 32.256 1.088 63.936-5.888 95.68a275.392 275.392 0 0 1-58.88 120.96c-41.216 49.344-92.48 82.816-155.84 96.448-17.344 3.84-35.264 5.504-52.48 9.344-13.696 3.008-27.392 2.88-41.28 2.88-88.832 0-177.536 0.32-266.368-0.128-23.104-0.128-44.864-6.656-62.336-23.104a82.304 82.304 0 0 1-25.344-40.96 144.448 144.448 0 0 1-4.608-40.64c0.512-14.144-0.384-28.288 1.216-42.24 2.112-17.984 7.744-35.136 20.416-49.024 11.392-12.48 24.32-22.656 41.152-26.88 12.864-3.136 25.664-6.528 39.616-4.8z m532.672-65.984a250.432 250.432 0 1 0-500.928 0.448 250.432 250.432 0 0 0 500.928-0.448z m-101.632-250.24c27.264 18.496 52.928 38.144 73.472 63.808 20.416 25.6 38.272 52.864 49.28 84.224h31.104a49.984 49.984 0 0 0 50.752-49.088v-46.464c0-31.104-21.312-52.416-52.352-52.48h-152.256zM378.304 620.032h-22.976a49.792 49.792 0 0 0-50.688 49.088v46.976c0.064 30.4 21.568 51.84 52.032 51.84h148.608a300.928 300.928 0 0 1-126.976-147.904z" />
	<path d="M616.96 499.52a34.688 34.688 0 1 1 64.576 25.408 34.688 34.688 0 0 1-64.576-25.408z m194.304-68.224l-88.512 39.616a84.672 84.672 0 0 0-33.152-33.152l37.504-95.104c-109.12-42.944-158.912 7.616-158.912 7.616l38.976 86.72a85.76 85.76 0 0 0-34.88 35.456l-93.312-36.736c-42.944 109.056 7.616 158.976 7.616 158.976l87.232-39.296c8.192 14.08 20.224 25.728 35.584 33.472l-36.864 93.504c109.12 43.008 159.04-7.616 159.04-7.616l-39.872-88.704c13.44-7.936 24.448-19.52 31.808-33.408l95.232 37.568c42.944-109.056-7.488-158.912-7.488-158.912zM630.08 560.512a51.84 51.84 0 1 1 38.144-96.576 51.904 51.904 0 1 1-38.144 96.576z m88.32 8.832l11.264 4.416-13.76 34.944-11.264-4.48 13.76-34.88z m22.528 3.648l12.736 4.992-17.344 43.904-12.736-4.992 17.344-43.904z m26.624 3.968l16.448 6.528-21.76 55.168-16.448-6.464 21.76-55.232z m28.608 9.152l16.832 6.656-23.104 58.752-16.832-6.656 23.104-58.752z m-240.384-18.176l34.944 13.76-4.48 11.264-34.88-13.76 4.416-11.264z m-12.608 18.944l43.84 17.28-4.992 12.672-43.84-17.344 4.992-12.608z m-15.296 22.144l55.232 21.824-6.464 16.32-55.232-21.76 6.464-16.384z m-12.736 27.2l58.752 23.168-6.656 16.832-58.752-23.104 6.656-16.896zM580.48 414.976l11.2 4.416-13.76 34.88-11.2-4.416 13.76-34.88z m-20.416-13.184l12.736 4.992-17.28 43.84-12.736-5.056 17.28-43.776z m-25.984-16.768l16.384 6.464-21.76 55.232-16.384-6.528 21.76-55.168z m-27.648-12.992l16.896 6.656-23.168 58.752-16.896-6.656 23.168-58.752z m205.888 63.104l34.88 13.76-4.416 11.264-34.88-13.76 4.416-11.264z m4.224-24l43.84 17.28-5.056 12.736-43.776-17.28 4.992-12.736z m5.44-30.464l55.232 21.76-6.528 16.512-55.232-21.76 6.528-16.512z m9.344-28.864l58.688 23.104-6.656 16.96-58.688-23.104 6.656-16.96z" />
</svg>