<?xml version="1.0" encoding="utf-8"?>
<!-- Generator: Adobe Illustrator 22.1.0, SVG Export Plug-In . SVG Version: 6.00 Build 0)  -->
<svg version="1.1" id="图层_1" xmlns="http://www.w3.org/2000/svg" xmlns:xlink="http://www.w3.org/1999/xlink" x="0px" y="0px"
	 viewBox="0 0 200 158.9" style="enable-background:new 0 0 200 158.9;" xml:space="preserve">
<style type="text/css">
	.st0{fill:#03A9F4;}
</style>
<path class="st0" d="M46.2,92.4c-0.3-1.8-0.7-3.5-1-5.2c-1.1-6.7-0.5-13.2,0.9-19.8c1.8-8.6,5.7-16.6,11.3-23.3
	c8-9.5,17.9-15.9,30.1-18.7c5-1.1,10.1-1.7,15.2-1.7c18.7,0,37.4-0.1,56.2,0.1c6.7,0,12.1,3,15.4,9c1.4,2.5,1.9,5.3,2.1,8.1
	c0.2,3.1,0.2,6.3,0,9.4c-0.4,6.7-3.3,12.1-9.4,15.3c-2.5,1.2-5.2,1.9-8,1.9c-1.3,0.1-2.6,0-3.9,0c0.3,2,0.8,4,1,5.9
	c0.8,6.2,0.2,12.3-1.1,18.4c-1.8,8.6-5.7,16.6-11.3,23.3c-7.9,9.5-17.8,16-30,18.6c-3.3,0.7-6.8,1.1-10.1,1.8
	c-2.6,0.6-5.3,0.6-8,0.6c-17.1,0-34.2,0.1-51.3,0c-4.5,0-8.6-1.3-12-4.5c-2.4-2.1-4.1-4.8-4.9-7.9c-0.7-2.6-1-5.2-0.9-7.8
	c0.1-2.7-0.1-5.4,0.2-8.1c0.4-3.5,1.5-6.8,3.9-9.4c2.2-2.4,4.7-4.4,7.9-5.2C41,92.8,43.5,92.1,46.2,92.4z M148.8,79.7
	c0-26.6-21.6-48.2-48.3-48.2c-26.6,0-48.2,21.6-48.2,48.3c0,26.6,21.6,48.2,48.3,48.2S148.8,106.4,148.8,79.7z M129.2,31.5
	c5.3,3.6,10.2,7.3,14.2,12.3c3.9,4.9,7.4,10.2,9.5,16.2h6c5.3,0.1,9.7-4.1,9.8-9.5v-9c0-6-4.1-10.1-10.1-10.1
	C158.5,31.5,129.2,31.5,129.2,31.5z M48.4,100.1h-4.4c-5.3-0.1-9.7,4.1-9.8,9.4c0,0,0,0,0,0v9c0,5.9,4.2,10,10,10h28.6
	C61.7,122.1,53.1,112,48.4,100.1z"/>
<path class="st0" d="M94.3,76.9c1.4-3.4,5.2-5.1,8.7-3.8c3.4,1.4,5.1,5.2,3.8,8.7c-1.4,3.4-5.2,5.1-8.7,3.8
	C94.7,84.2,93,80.3,94.3,76.9z M131.8,63.7l-17.1,7.6c-1.5-2.7-3.7-4.9-6.4-6.4l7.2-18.3c-21-8.3-30.6,1.5-30.6,1.5l7.5,16.7
	c-2.9,1.6-5.2,3.9-6.7,6.8l-18-7.1c-8.3,21,1.5,30.6,1.5,30.6L86,87.6c1.6,2.7,3.9,5,6.9,6.4l-7.1,18c21,8.3,30.6-1.5,30.6-1.5
	l-7.7-17.1c2.6-1.5,4.7-3.8,6.1-6.4l18.3,7.2C141.5,73.3,131.8,63.7,131.8,63.7L131.8,63.7z M96.9,88.6c-5.1-2-7.7-7.8-5.6-13
	c2-5.1,7.8-7.7,13-5.6c5.1,2,7.7,7.8,5.6,13C107.8,88.1,102,90.7,96.9,88.6L96.9,88.6z M113.9,90.3l2.2,0.9l-2.7,6.7l-2.2-0.9
	L113.9,90.3z M118.2,91l2.5,1l-3.3,8.5l-2.5-1L118.2,91z M123.4,91.8l3.2,1.3l-4.2,10.6l-3.2-1.2L123.4,91.8z M128.9,93.6l3.2,1.3
	l-4.5,11.3l-3.2-1.3L128.9,93.6z M82.6,90.1l6.7,2.7l-0.9,2.2l-6.7-2.7L82.6,90.1z M80.1,93.7l8.4,3.3l-1,2.4l-8.4-3.3
	C79.2,96.1,80.1,93.7,80.1,93.7z M77.2,98l10.6,4.2l-1.2,3.1l-10.6-4.2L77.2,98z M74.7,103.2l11.3,4.5l-1.3,3.2l-11.3-4.5
	L74.7,103.2z M87.3,60.6l2.2,0.9l-2.7,6.7l-2.2-0.9L87.3,60.6z M83.4,58.1l2.5,1l-3.3,8.4l-2.5-1L83.4,58.1z M78.4,54.8l3.2,1.2
	l-4.2,10.6l-3.2-1.3L78.4,54.8z M73.1,52.3l3.3,1.3l-4.5,11.3l-3.3-1.3C68.6,63.6,73.1,52.3,73.1,52.3z M112.7,64.5l6.7,2.7
	l-0.9,2.2l-6.7-2.7L112.7,64.5z M113.5,59.9l8.4,3.3l-1,2.5l-8.4-3.3L113.5,59.9z M114.6,54l10.6,4.2l-1.3,3.2l-10.6-4.2L114.6,54z
	 M116.4,48.4l11.3,4.5l-1.3,3.3l-11.3-4.5L116.4,48.4z"/>
</svg>
