<?xml version="1.0" standalone="no"?><!DOCTYPE svg PUBLIC "-//W3C//DTD SVG 1.1//EN" "http://www.w3.org/Graphics/SVG/1.1/DTD/svg11.dtd"><svg class="icon" width="200px" height="200.00px" viewBox="0 0 1024 1024" version="1.1" xmlns="http://www.w3.org/2000/svg"><path d="M512 992c-265.08 0-480-214.92-480-480s214.92-480 480-480 480 214.92 480 480S777.08 992 512 992zM512 152C313.22 152 152 313.22 152 512s161.22 360 360 360 360-161.22 360-360S710.78 152 512 152zM692 572L572 572l0 120c0 33.18-26.82 60-60 60-33.12 0-60-26.82-60-60L452 572 332 572C298.88 572 272 545.18 272 512c0-33.12 26.88-60 60-60l120 0L452 332c0-33.12 26.88-60 60-60 33.18 0 60 26.88 60 60l0 120 120 0c33.18 0 60 26.88 60 60C752 545.18 725.18 572 692 572z" fill="#e6e6e6" /></svg>