<?xml version="1.0" standalone="no"?><!DOCTYPE svg PUBLIC "-//W3C//DTD SVG 1.1//EN" "http://www.w3.org/Graphics/SVG/1.1/DTD/svg11.dtd">
<svg class="icon" width="200px" height="200.00px" style="fill:#489B1F" viewBox="0 0 1024 1024" version="1.1" xmlns="http://www.w3.org/2000/svg">
	<path d="M513.16224 118.152192l0-0.060416c-0.038912-0.038912-0.059392-0.059392-0.059392-0.059392l0 0.060416c-0.04096-0.04096-0.065536-0.064512-0.065536-0.064512L513.024 123.74016l-0.013312-5.711872c0 0-0.023552 0.022528-0.065536 0.064512l0-0.060416c0 0-0.02048 0.02048-0.059392 0.059392l0 0.060416c-6.602752 6.540288-306.937856 305.130496-296.249344 493.109248 0.612352 162.868224 132.825088 294.709248 295.835648 294.709248 0.183296 0 0.367616-0.003072 0.550912-0.003072 0.183296 0.001024 0.367616 0.003072 0.550912 0.003072 163.011584 0 295.223296-131.841024 295.835648-294.709248C820.100096 423.282688 519.766016 124.69248 513.16224 118.152192zM764.479488 610.605056l-0.139264 0c-0.259072 138.276864-112.427008 250.292224-250.764288 250.292224-0.13824 0-0.275456-0.003072-0.411648-0.00512l0-0.003072c-0.04608 0-0.091136 0.001024-0.13824 0.002048-0.04608-0.001024-0.091136-0.002048-0.13824-0.002048l0 0.004096c-0.13824 0.003072-0.275456 0.00512-0.411648 0.00512-138.33728 0-250.505216-112.016384-250.765312-250.292224l-0.139264 0c-9.7536-162.392064 251.16672-434.151424 251.16672-434.151424 0.050176 0.052224 0.099328 0.104448 0.14848 0.156672l0 0.288768c0.04608-0.048128 0.091136-0.095232 0.13824-0.144384 0.04608 0.048128 0.091136 0.095232 0.13824 0.144384l0-0.288768c0.050176-0.0512 0.099328-0.104448 0.14848-0.156672C513.312768 176.453632 775.394304 447.121408 764.479488 610.605056z"  />
	<path d="M286.084096 608.488448c0 125.824 102.00064 227.82464 227.82464 227.82464 105.80992 0 194.06848-79.99488 219.692032-177.768448-52.512768-40.22272-184.454144-29.569024-184.454144-29.569024-106.53696 0-194.550784-48.198656-251.06432-93.640704C290.302976 558.297088 286.084096 582.899712 286.084096 608.488448z"  />
</svg>