<?xml version="1.0" standalone="no"?><!DOCTYPE svg PUBLIC "-//W3C//DTD SVG 1.1//EN" "http://www.w3.org/Graphics/SVG/1.1/DTD/svg11.dtd">
<svg t="1532581858168" class="icon" style="fill:#D29E0E" viewBox="0 0 1024 1024" version="1.1" xmlns="http://www.w3.org/2000/svg" p-id="4835" xmlns:xlink="http://www.w3.org/1999/xlink" width="200" height="200">
	<defs>
		<style type="text/css"></style>
	</defs>
	<path d="M511.978511 109.316513l-8.846465 0.112563c-154.252868 4.633521-279.303705 134.068194-278.768517 288.530839 0.279362 73.704505 28.480601 143.702602 79.404309 197.099637l14.439845 14.944333c37.384371 38.4527 49.971012 51.430243 49.971011 103.310741v28.763033h287.643635V713.314626c0-49.352936 13.735812-63.930927 46.937938-99.210361 7.836463-8.370628 16.375936-17.443243 25.531439-27.835919 46.010825-52.415685 71.345789-119.631419 71.345789-189.320479 0-158.645913-129.039677-287.631355-287.658984-287.631354zM685.091898 548.291482c-8.707295 9.859536-16.795491 18.48292-24.211377 26.374641-29.913227 31.79713-54.438758 57.862733-60.925482 109.884447H424.213807c-6.092753-54.296518-30.419763-79.322445-64.772083-114.631555l-14.04485-14.577991c-40.728529-42.695319-63.284199-98.676196-63.510349-157.57963-0.419555-123.562953 99.605356-227.127473 222.984115-230.833881l7.106847-0.112563c126.907111 0 230.137011 103.22683 230.137011 230.132917a229.222177 229.222177 0 0 1-57.0226 151.343615zM368.178694 770.868322h287.643635v57.498437H368.178694zM425.704761 857.130815h172.591502v57.552672H425.704761z" p-id="4836"></path>
	<path d="M339.413615 396.947867h57.527089c0-63.480673 51.599089-115.052133 115.066459-115.052132v-57.554719c-95.179566 0-172.593548 77.441612-172.593548 172.606851z" p-id="4837"></path>
</svg>