<?xml version="1.0" encoding="utf-8"?>
<!-- Generator: Adobe Illustrator 22.1.0, SVG Export Plug-In . SVG Version: 6.00 Build 0)  -->
<svg version="1.1" id="图层_1" xmlns="http://www.w3.org/2000/svg" xmlns:xlink="http://www.w3.org/1999/xlink" x="0px" y="0px"
	 viewBox="0 0 200 200" style="enable-background:new 0 0 200 200;" xml:space="preserve">
<style type="text/css">
	.st0{fill:#57595F;}
</style>
<path class="st0" d="M100,23c-47.4,0-71.1,17.8-71.1,17.8l5.9,35.5l11.8,5.9l5.9,23.7c0,0,23.7,8.9,47.4,8.9s47.4-8.9,47.4-8.9
	l5.9-23.7l11.8-5.9l5.9-35.5C171.1,40.8,147.4,23,100,23z M154.5,68.4l-6.5,3.2l-4.9,2.4l-1.3,5.3l-1.1,4.3
	c-1.9-0.4-3.8-0.7-5.7-1.1L132.4,94c1.8,0.3,3.6,0.6,5.5,1l-0.4,1.7c-7.9,2.4-22.9,6.2-37.5,6.2s-29.6-3.8-37.5-6.2L62.1,95
	c1.7-0.3,3.5-0.6,5.5-1l-2.6-11.4c-1.9,0.3-3.8,0.7-5.7,1.1l-1.1-4.3l-1.3-5.3L52,71.6l-6.5-3.2l-3.6-21.6c2.5-1.3,5.9-2.8,10-4.3
	c6.2-2.2,12.9-4,20-5.3c8.9-1.6,18.3-2.4,28.1-2.4s19.2,0.8,28.1,2.4c7.1,1.3,13.8,3.1,20,5.3c4.1,1.5,7.4,3,10,4.3L154.5,68.4z"/>
<path class="st0" d="M117.7,92c3,0.3,5.9,0.7,8.9,1.1l2.6-11.5c-3.4-0.5-6.8-1-10.2-1.3L117.7,92z M103,91.1c3,0.1,5.9,0.2,8.9,0.4
	l1.3-11.7c-3.3-0.3-6.7-0.4-10.2-0.5V91.1z M70.8,81.7l2.6,11.5c2.9-0.4,5.9-0.8,8.9-1.1l-1.3-11.7C77.5,80.7,74.2,81.1,70.8,81.7z
	 M88.2,91.5c2.9-0.2,5.9-0.4,8.9-0.4V79.3c-3.4,0.1-6.9,0.3-10.2,0.5C86.8,79.8,88.2,91.5,88.2,91.5z M104.8,148.4
	c-0.6-0.5-1.2-0.9-1.8-1.3c-4-2.9-6.9-5.1-1.3-14.8c0,0,0-0.1,0-0.1c0-0.1,0.1-0.1,0.1-0.2c0-0.1,0-0.1,0-0.2c0-0.1,0-0.1,0-0.2
	c0-0.1,0-0.1,0-0.2c0-0.1,0-0.1,0-0.2c0-0.1,0-0.1,0-0.2c0-0.1,0-0.1,0-0.2c0-0.1,0-0.1-0.1-0.2c0,0,0-0.1,0-0.1c0,0,0,0,0,0
	c0-0.1-0.1-0.1-0.1-0.2c0,0,0-0.1-0.1-0.1c0-0.1-0.1-0.1-0.1-0.1c0,0-0.1-0.1-0.1-0.1c0,0-0.1-0.1-0.1-0.1c-0.1,0-0.1-0.1-0.2-0.1
	c0,0,0,0,0,0c0,0-0.1,0-0.1-0.1c-0.1,0-0.1-0.1-0.2-0.1c-0.1,0-0.1,0-0.2-0.1c0,0-0.1,0-0.1,0c-0.1,0-0.2,0-0.2,0s-0.1,0-0.1,0
	c-0.1,0-0.1,0-0.2,0c0,0-0.1,0-0.1,0c-0.1,0-0.2,0.1-0.2,0.1c0,0-0.1,0-0.1,0l0,0c0,0,0,0,0,0c-7.7,3.6-10.1,8.3-10.7,11.6
	c-0.7,4.2,0.9,8.7,4.3,12.1c0.3,0.3,0.6,0.6,0.9,0.9c2.9,2.9,6.5,6.4,6.4,10.7c-0.1,2.8-1.9,5.8-5.3,8.8c0,0,0,0,0,0
	c-0.1,0-0.1,0.1-0.1,0.1c0,0-0.1,0.1-0.1,0.1c0,0.1-0.1,0.1-0.1,0.2c0,0-0.1,0.1-0.1,0.1c0,0.1,0,0.1-0.1,0.2c0,0.1,0,0.1-0.1,0.2
	c0,0.1,0,0.1,0,0.2c0,0.1,0,0.1,0,0.2c0,0.1,0,0.1,0,0.2c0,0.1,0,0.1,0,0.2c0,0.1,0,0.1,0,0.2c0,0.1,0,0.1,0.1,0.2c0,0,0,0,0,0
	c0,0,0,0,0,0.1c0.1,0.1,0.1,0.2,0.2,0.4c0,0,0,0,0.1,0.1c0,0,0,0,0,0c0.1,0.1,0.2,0.2,0.3,0.3c0,0,0.1,0,0.1,0.1
	c0.1,0.1,0.2,0.1,0.3,0.2c0,0,0.1,0,0.1,0c0.1,0,0.3,0.1,0.4,0.1c0,0,0,0,0,0c0,0,0.1,0,0.1,0c0.1,0,0.1,0,0.2,0c0,0,0.1,0,0.1,0
	c0.1,0,0.2,0,0.2-0.1c0,0,0,0,0,0c11-4.4,14-10.2,14.6-14.2C112.1,157.7,109.7,152.3,104.8,148.4L104.8,148.4z M140.3,148.4
	c-0.6-0.5-1.2-0.9-1.8-1.3c-4-2.9-6.9-5.1-1.3-14.8c0,0,0-0.1,0-0.1c0-0.1,0.1-0.1,0.1-0.2c0-0.1,0-0.1,0-0.2c0-0.1,0-0.1,0-0.2
	c0-0.1,0-0.1,0-0.2c0-0.1,0-0.1,0-0.2c0-0.1,0-0.1,0-0.2c0-0.1,0-0.1,0-0.2c0-0.1,0-0.1-0.1-0.2c0,0,0-0.1,0-0.1c0,0,0,0,0,0
	c0-0.1-0.1-0.1-0.1-0.2c0,0,0-0.1-0.1-0.1c0-0.1-0.1-0.1-0.1-0.1c0,0-0.1-0.1-0.1-0.1c0,0-0.1-0.1-0.1-0.1c-0.1,0-0.1-0.1-0.2-0.1
	c0,0,0,0,0,0c0,0-0.1,0-0.1-0.1c-0.1,0-0.1-0.1-0.2-0.1c-0.1,0-0.1,0-0.2-0.1c0,0-0.1,0-0.1,0c-0.1,0-0.2,0-0.2,0s-0.1,0-0.1,0
	c-0.1,0-0.1,0-0.2,0c0,0-0.1,0-0.1,0c-0.1,0-0.2,0.1-0.2,0.1c0,0-0.1,0-0.1,0l0,0c0,0,0,0,0,0c-7.7,3.6-10.1,8.3-10.7,11.6
	c-0.7,4.2,0.9,8.7,4.3,12.1c0.3,0.3,0.6,0.6,0.9,0.9c2.9,2.9,6.5,6.4,6.4,10.7c-0.1,2.8-1.9,5.8-5.3,8.8c0,0,0,0,0,0
	c-0.1,0-0.1,0.1-0.1,0.1c0,0-0.1,0.1-0.1,0.1c0,0.1-0.1,0.1-0.1,0.2c0,0-0.1,0.1-0.1,0.1c0,0.1,0,0.1-0.1,0.2c0,0.1,0,0.1-0.1,0.2
	c0,0.1,0,0.1,0,0.2c0,0.1,0,0.1,0,0.2c0,0.1,0,0.1,0,0.2c0,0.1,0,0.1,0,0.2c0,0.1,0,0.1,0,0.2c0,0.1,0,0.1,0.1,0.2c0,0,0,0,0,0
	c0,0,0,0,0,0.1c0.1,0.1,0.1,0.2,0.2,0.4c0,0,0,0,0.1,0.1c0,0,0,0,0,0c0.1,0.1,0.2,0.2,0.3,0.3c0,0,0.1,0,0.1,0.1
	c0.1,0.1,0.2,0.1,0.3,0.2c0,0,0.1,0,0.1,0c0.1,0,0.3,0.1,0.4,0.1c0,0,0,0,0,0c0,0,0.1,0,0.1,0c0.1,0,0.1,0,0.2,0c0,0,0.1,0,0.1,0
	c0.1,0,0.2,0,0.2-0.1c0,0,0,0,0,0c11-4.4,14-10.2,14.6-14.2C147.7,157.7,145.2,152.3,140.3,148.4L140.3,148.4z M69.2,148.4
	c-0.6-0.5-1.2-0.9-1.8-1.3c-4-2.9-6.9-5.1-1.3-14.8c0,0,0-0.1,0-0.1c0-0.1,0.1-0.1,0.1-0.2c0-0.1,0-0.1,0-0.2c0-0.1,0-0.1,0-0.2
	c0-0.1,0-0.1,0-0.2c0-0.1,0-0.1,0-0.2c0-0.1,0-0.1,0-0.2c0-0.1,0-0.1,0-0.2c0-0.1,0-0.1-0.1-0.2c0,0,0-0.1,0-0.1c0,0,0,0,0,0
	c0-0.1-0.1-0.1-0.1-0.2c0,0,0-0.1-0.1-0.1c0-0.1-0.1-0.1-0.1-0.1c0,0-0.1-0.1-0.1-0.1c0,0-0.1-0.1-0.1-0.1c-0.1,0-0.1-0.1-0.2-0.1
	c0,0,0,0,0,0c0,0-0.1,0-0.1-0.1c-0.1,0-0.1-0.1-0.2-0.1c-0.1,0-0.1,0-0.2-0.1c0,0-0.1,0-0.1,0c-0.1,0-0.2,0-0.2,0s-0.1,0-0.1,0
	c-0.1,0-0.1,0-0.2,0c0,0-0.1,0-0.1,0c-0.1,0-0.2,0.1-0.2,0.1c0,0-0.1,0-0.1,0l0,0c0,0,0,0,0,0c-7.7,3.6-10.1,8.3-10.7,11.6
	c-0.7,4.2,0.9,8.7,4.3,12.1c0.3,0.3,0.6,0.6,0.9,0.9c2.9,2.9,6.5,6.4,6.4,10.7c-0.1,2.8-1.9,5.8-5.3,8.8c0,0,0,0,0,0
	c-0.1,0-0.1,0.1-0.1,0.1c0,0-0.1,0.1-0.1,0.1c0,0.1-0.1,0.1-0.1,0.2c0,0-0.1,0.1-0.1,0.1c0,0.1,0,0.1-0.1,0.2c0,0.1,0,0.1-0.1,0.2
	c0,0.1,0,0.1,0,0.2c0,0.1,0,0.1,0,0.2c0,0.1,0,0.1,0,0.2c0,0.1,0,0.1,0,0.2c0,0.1,0,0.1,0,0.2c0,0.1,0,0.1,0.1,0.2c0,0,0,0,0,0
	c0,0,0,0,0,0.1c0.1,0.1,0.1,0.2,0.2,0.4c0,0,0,0,0.1,0.1c0,0,0,0,0,0c0.1,0.1,0.2,0.2,0.3,0.3c0,0,0.1,0,0.1,0.1
	c0.1,0.1,0.2,0.1,0.3,0.2c0,0,0.1,0,0.1,0c0.1,0,0.3,0.1,0.4,0.1c0,0,0,0,0,0c0,0,0.1,0,0.1,0c0.1,0,0.1,0,0.2,0c0,0,0.1,0,0.1,0
	c0.1,0,0.2,0,0.2-0.1c0,0,0,0,0,0c11-4.4,14-10.2,14.6-14.2C76.6,157.7,74.1,152.3,69.2,148.4L69.2,148.4z"/>
</svg>
