<?xml version="1.0" standalone="no"?><!DOCTYPE svg PUBLIC "-//W3C//DTD SVG 1.1//EN" "http://www.w3.org/Graphics/SVG/1.1/DTD/svg11.dtd">
<svg t="1534903603624" class="icon" style="fill:#D4237A" viewBox="0 0 1024 1024" version="1.1" xmlns="http://www.w3.org/2000/svg" p-id="1374" xmlns:xlink="http://www.w3.org/1999/xlink" width="200" height="200">
	<defs>
		<style type="text/css"></style>
	</defs>
	<path d="M443 397.1c81.1 0 148.1 61.1 157.5 139.6l93.6 7.8c19.2-61.3 76.4-105.8 144-105.8 83.4 0 151 67.6 151 151 0 83.2-67.6 150.7-151 150.7-79.8 0-145.3-61.9-150.7-140.1l-90.2-7.5c-16.6 69.6-79.3 121.4-154.1 121.4-45.2 0-85.8-19-114.6-49.1L251 716c3.9 11.4 6.2 23.6 6.2 36.6 0 61.1-49.9 110.7-111.2 110.7S35 813.7 35 752.6c0-61.3 49.6-111 111-111 28.3 0 53.8 10.4 73.5 27.8l77.7-51.2c-8.3-19.2-13-40.3-13-62.6 0-60.8 34.6-113.8 85-140.3L337 327.7c-10.1 0.5-20.3-0.5-30.4-2.9-57.7-14.3-93-72.2-79-129.9 14-57.4 72.2-92.8 129.9-78.7s93 72 79 129.7c-6.8 27.8-23.9 50.2-46 64.7l32.2 87.8c6.8-0.8 13.5-1.3 20.3-1.3z" p-id="1375"></path>
</svg>