<?xml version="1.0" encoding="utf-8"?>
<!-- Generator: Adobe Illustrator 22.1.0, SVG Export Plug-In . SVG Version: 6.00 Build 0)  -->
<svg version="1.1" id="图层_1" xmlns="http://www.w3.org/2000/svg" xmlns:xlink="http://www.w3.org/1999/xlink" x="0px" y="0px"
	 viewBox="0 0 200 172.5" style="enable-background:new 0 0 200 172.5;" xml:space="preserve">
<style type="text/css">
	.st0{fill:#1296DB;}
</style>
<path class="st0" d="M154,19.4H39.3c-9.7,0-17.6,7.8-17.6,17.4V78c0,9.6,7.8,17.5,17.6,17.5h114.9c9.7,0,17.6-7.8,17.6-17.5V36.7
	C171.6,27.1,163.8,19.4,154,19.4z M163.7,79.6c0,4.6-3.7,8.5-8.2,8.5H37.4c-4.5,0-8.2-3.8-8.2-8.5V35.7c0-4.6,3.7-8.5,8.2-8.5h118.1
	c4.5,0,8.2,3.8,8.2,8.5V79.6z M149.3,57.3H40.8c-1.7,0-3.1,1.4-3.2,3.1c0,1.7,1.4,3.1,3.2,3.1h108.5c1.7,0,3.1-1.4,3.2-3.1
	C152.4,58.8,151,57.4,149.3,57.3z M149.3,70H40.8c-1.7,0-3.1,1.4-3.2,3.1c0,1.7,1.4,3.1,3.2,3.1h108.5c1.7,0,3.1-1.4,3.2-3.1
	C152.4,71.4,151,70,149.3,70z M56.8,110.6c-2-5.5-7-7.4-7.6-7.6c-1.6-0.6-3.5,0.2-4.1,1.9c0,0,0,0,0,0c-0.6,1.6,0.2,3.4,1.8,4
	c0,0,0,0,0,0c0,0,2.8,1.1,3.8,3.9c0.9,2.4,0.2,5.6-1.9,9.4c-7.4,13-0.7,21.3,3.9,23.9c0.5,0.3,1,0.4,1.6,0.4c1.1,0,2.2-0.6,2.8-1.6
	c0.9-1.5,0.4-3.5-1.1-4.3c0,0,0,0,0,0c-0.7-0.4-7.5-4.9-1.5-15.3C57.6,119.8,58.3,114.9,56.8,110.6L56.8,110.6z M99,110.6
	c-2-5.5-7-7.4-7.6-7.6c-1.6-0.6-3.5,0.2-4.1,1.9c0,0,0,0,0,0c-0.6,1.6,0.2,3.4,1.8,4c0,0,0,0,0,0c0,0,2.8,1.1,3.8,3.9
	c0.9,2.4,0.2,5.6-1.9,9.4c-7.4,13-0.7,21.3,3.9,23.9c0.5,0.3,1,0.4,1.6,0.4c1.1,0,2.2-0.6,2.8-1.6c0.9-1.5,0.4-3.5-1.1-4.3
	c0,0,0,0,0,0c-0.8-0.4-7.5-4.9-1.5-15.3C99.8,119.8,100.6,114.9,99,110.6L99,110.6z M78.5,114.7c-2.2-5.8-7.8-8-8.1-8.1
	c-1.6-0.6-3.5,0.2-4.1,1.9c0,0,0,0,0,0c-0.6,1.6,0.2,3.4,1.8,4c0,0,3.2,1.3,4.3,4.4c1,2.7,0.2,6.1-2.1,10.3
	c-9.8,17.3,4,25.4,4.1,25.5c0.5,0.3,1,0.4,1.6,0.4c1.1,0,2.2-0.6,2.8-1.6c0.9-1.5,0.4-3.5-1.1-4.3c0,0,0,0,0,0
	c-0.9-0.5-8.3-5.4-1.7-16.9C79.3,124.4,80.1,119.2,78.5,114.7L78.5,114.7z M144.2,116.1c1.7-0.9,2.3-3,1.4-4.7
	c0-0.1-0.1-0.1-0.1-0.2c-1-1.7-3.1-2.3-4.8-1.3c0,0-0.1,0-0.1,0.1c-1.1,0.6-1.8,1.8-1.7,3.1l-5.3,3.1v-6.2c0-0.1,0.1-0.1,0.1-0.1
	c1.1-0.6,1.8-1.7,1.8-3c0-2-1.6-3.6-3.5-3.6c0,0-0.1,0-0.1,0c-2,0-3.6,1.5-3.6,3.5c0,0,0,0.1,0,0.1c0,1.5,0.9,2.8,2.2,3.3v6.6
	l-6.2-3.5c0-1.3-0.7-2.4-1.7-3.1c-1.7-1-3.9-0.4-4.9,1.3c-1,1.7-0.4,3.9,1.3,4.9c1.1,0.7,2.5,0.5,3.5,0l5.6,3.1l-5.6,3.1
	c-1.1-0.6-2.4-0.6-3.5,0c-1.7,0.9-2.3,3-1.4,4.7c0,0.1,0.1,0.1,0.1,0.2c1,1.7,3.1,2.3,4.8,1.3c0,0,0.1,0,0.1-0.1
	c1.1-0.6,1.8-1.8,1.7-3.1l6.2-3.5v6.5c-1.3,0.6-2.2,1.9-2.2,3.3c0,2,1.6,3.6,3.6,3.6c2,0,3.6-1.6,3.6-3.6c0-1.3-0.7-2.5-1.9-3.1
	v-6.2l5.3,3.1c0,1.2,0.6,2.4,1.7,3.1c1.7,1,3.9,0.4,4.9-1.3c1-1.7,0.4-3.9-1.3-4.9c-1.1-0.7-2.5-0.5-3.5,0l-5.6-3.1l5.6-3.1
	C141.7,116.6,143,116.8,144.2,116.1L144.2,116.1z"/>
</svg>
