<?xml version="1.0" standalone="no"?><!DOCTYPE svg PUBLIC "-//W3C//DTD SVG 1.1//EN" "http://www.w3.org/Graphics/SVG/1.1/DTD/svg11.dtd"><svg class="icon" width="200px" height="172.54px" viewBox="0 0 1187 1024" version="1.1" xmlns="http://www.w3.org/2000/svg"><path d="M1012.695492 0H134.466301C60.577417 0 0 59.635375 0 132.9918v315.379385c0 73.356426 60.004 133.524259 134.466301 133.524259h878.802608c73.888884 0 134.466301-59.594416 134.466302-133.524259v-315.379385C1147.161794 59.635375 1087.116835 0 1012.695492 0z m73.888885 460.945402c0 35.551858-28.26127 64.796128-62.912044 64.796128H120.008c-34.609816 0-62.871085-29.24427-62.871085-64.796128V125.00492c0-35.551858 28.26127-64.796128 62.871085-64.796128h903.664333c34.609816 0 62.912044 29.24427 62.912044 64.796128v335.940482z m-110.218952-170.263909H146.549018a24.288308 24.288308 0 0 0-24.206392 24.083516c0 13.188592 10.935883 24.083517 24.206392 24.083517h829.816407a24.288308 24.288308 0 0 0 24.206392-24.083517 24.288308 24.288308 0 0 0-24.206392-24.083516z m0 96.866525H146.549018a24.288308 24.288308 0 0 0-24.206392 24.083517c0 13.188592 10.935883 24.083517 24.206392 24.083516h829.816407a24.288308 24.288308 0 0 0 24.206392-24.083516 24.288308 24.288308 0 0 0-24.206392-24.083517zM268.277269 698.340066c-15.564177-41.859446-53.655454-56.768289-58.283749-58.447582a24.165433 24.165433 0 0 0-31.128355 14.335427 23.960642 23.960642 0 0 0 14.417344 30.923563s21.298348 8.601256 29.408103 29.817687c6.962921 18.349346 1.720251 43.00628-14.417343 72.25055-56.522539 99.201152-5.201712 162.809488 30.022479 182.879085a24.370225 24.370225 0 0 0 12.082717 3.440502 25.230351 25.230351 0 0 0 21.380265-12.041758 24.24735 24.24735 0 0 0-8.683173-33.25819c-5.734171-3.440502-57.095956-37.272109-11.5093-116.936122 23.059558-42.432863 28.834687-80.278389 16.711012-112.963162z m323.161473 0c-15.564177-41.859446-53.655454-56.768289-58.283748-58.447582a24.165433 24.165433 0 0 0-31.169313 14.335427 23.960642 23.960642 0 0 0 14.417343 30.923563s21.339306 8.601256 29.449062 29.817687c6.921963 18.349346 1.720251 43.00628-14.458302 72.25055-56.522539 99.201152-5.160754 162.809488 30.022479 182.879085a24.370225 24.370225 0 0 0 12.123675 3.440502 25.230351 25.230351 0 0 0 21.339307-12.041758 24.24735 24.24735 0 0 0-8.642214-33.25819c-5.775129-3.440502-57.136915-37.272109-11.550258-116.936122 23.100516-42.432863 28.875645-80.278389 16.751969-112.963162z m-156.952441 30.964522c-16.75197-44.726531-60.044958-61.355626-61.76521-61.929043a24.165433 24.165433 0 0 0-31.128355 14.335427 24.165433 24.165433 0 0 0 13.843927 30.964521s24.779809 9.74809 32.889564 33.831607c7.49538 20.643014 1.720251 47.020199-16.178553 79.131554-74.99476 132.418383 30.595896 194.347426 31.74273 194.920844a24.370225 24.370225 0 0 0 12.123675 3.440502 25.230351 25.230351 0 0 0 21.339307-12.041758 24.24735 24.24735 0 0 0-8.642214-33.25819c-6.962921-4.013919-63.485461-41.286029-13.27051-129.018839 25.394184-45.873365 31.74273-85.971601 19.045639-120.376625z m502.559097 10.894924a26.541018 26.541018 0 0 0 9.830007-37.272109 26.909644 26.909644 0 0 0-37.517859-9.74809 26.622935 26.622935 0 0 0-13.270509 23.510099l-40.384945 23.5101V692.605896c0-0.573417 0.573417-0.573417 0.573417-1.146834a26.74581 26.74581 0 0 0 13.843926-22.936683 27.237311 27.237311 0 0 0-27.687852-27.524019 27.237311 27.237311 0 0 0-27.687853 27.524019c0 11.468341 6.921963 21.216431 16.711012 25.230351v50.460701l-47.306908-26.950602a27.319227 27.319227 0 0 0-13.270509-23.510099 27.892644 27.892644 0 0 0-37.517859 9.74809 27.524019 27.524019 0 0 0 9.830006 37.272109c8.642214 5.160754 19.045638 4.013919 27.114436 0l42.719571 24.083517-42.719571 24.083516a26.99156 26.99156 0 0 0-27.114436 0 26.541018 26.541018 0 0 0-9.830006 37.27211 26.909644 26.909644 0 0 0 37.517859 9.74809 26.622935 26.622935 0 0 0 13.270509-23.5101l47.306908-26.950602v49.887285a27.155394 27.155394 0 0 0-16.711012 25.23035c0 15.482261 12.123675 27.524019 27.687853 27.524019 15.564177 0 27.687852-12.041758 27.687852-27.524019a26.377185 26.377185 0 0 0-14.417343-23.510099v-47.593617l40.384945 23.5101c0 9.174673 4.628295 18.349346 13.270509 23.5101 13.270509 7.454422 30.022479 2.867085 37.517859-9.74809a27.524019 27.524019 0 0 0-9.830007-37.27211c-8.601256-5.160754-19.00468-4.013919-27.073477 0l-42.719571-24.083516 42.719571-24.083517c8.068797 2.867085 18.431263 4.013919 27.114436-1.146834z" fill="#1296db" /></svg>