<?xml version="1.0" standalone="no"?><!DOCTYPE svg PUBLIC "-//W3C//DTD SVG 1.1//EN" "http://www.w3.org/Graphics/SVG/1.1/DTD/svg11.dtd">
<svg class="icon" width="200px" height="200.00px" viewBox="0 0 1024 1024" version="1.1" xmlns="http://www.w3.org/2000/svg">
	<path d="M63.17 396.097v75.781l414.409-319.268 414.261 319.268v-75.781l-414.261-319.268-414.409 319.268zM823.019 309.981v-214.050h-126.141v112.623l44.235 39.204v-107.77h37.804v131.315l44.113 38.688z" fill="#e6e6e6" />
	<path d="M459.447 839.844h-270.15v-398.155l-50.761 36.724v411.986h351.639c-11.429-11.52-21.539-37.218-30.725-50.55zM702.88 427.925c144.179 0 260.646 116.255 260.646 259.629 0 143.348-116.595 259.613-260.646 259.613-143.926 0-260.636-116.41-260.636-259.613 0.127-143.378 116.879-259.629 260.636-259.629zM702.911 467.818c-121.893 0-220.618 98.454-220.618 219.853 0 121.391 98.881 219.876 220.618 219.876 121.867 0 220.81-98.484 220.81-219.876 0-121.398-98.82-219.853-220.81-219.853z" fill="#e6e6e6" />
	<path d="M843.361 600.861l-34.848 34.882-34.019-6.156-6.095-33.874 34.874-34.822c-7.824-7.818-18.993-11.377-27.25-10.957-8.33 0.434-26.112 5.1-39.852 19.659-13.34 14.032-27.358 40.119-14.948 69.135 1.458 3.517 3.163 8.123-1.763 13.019-5.046 4.923-132.656 124.649-132.656 124.649-11.99 10.259-11.134 29.252-0.084 40.325 11.219 10.99 30.157 11.664 40.471-0.195 0 0 119.196-126.481 125.063-132.187 5.245-5.1 9.926-3.363 13.067-1.782 21.955 11.308 53.249 1.494 69.491-14.683 16.207-16.183 19.165-31.772 19.697-39.744 0.463-7.951-2.288-18.467-11.139-27.265zM614.722 802.619c-3.895 3.812-10.164 3.812-13.981 0-3.867-3.865-3.867-10.14 0-13.95 3.872-3.812 10.14-3.812 13.981 0 3.837 3.872 3.837 10.14 0 13.95z" fill="#e6e6e6" />
</svg>