<?xml version="1.0" standalone="no"?><!DOCTYPE svg PUBLIC "-//W3C//DTD SVG 1.1//EN" "http://www.w3.org/Graphics/SVG/1.1/DTD/svg11.dtd"><svg t="1536545997206" class="icon" style="" viewBox="0 0 1024 1024" version="1.1" xmlns="http://www.w3.org/2000/svg" p-id="4264" xmlns:xlink="http://www.w3.org/1999/xlink" width="200" height="200"><defs><style type="text/css"></style></defs><path d="M546.133333 358.4c-31.695238 4.87619-56.07619 29.257143-60.952381 60.952381-7.314286 48.761905 34.133333 92.647619 85.333334 85.333333 31.695238-4.87619 56.07619-29.257143 60.952381-60.952381 4.87619-51.2-36.571429-92.647619-85.333334-85.333333zM219.428571 926.47619c-14.628571 14.628571-14.628571 36.571429 0 51.2s36.571429 14.628571 51.2 0l148.72381-148.723809-51.2-51.2L219.428571 926.47619zM655.847619 621.714286l-109.714286-19.504762-12.190476 73.142857 109.714286 19.504762c19.504762 2.438095 39.009524-9.752381 41.447619-29.257143 2.438095-19.504762-9.752381-39.009524-29.257143-43.885714z" p-id="4265" fill="#d4237a"></path><path d="M575.390476 819.2l-99.961905-99.961905 41.447619-146.285714c4.87619-19.504762-4.87619-41.447619-26.819047-46.32381l-34.133333-9.752381-136.533334 51.2-58.514286 102.4c-9.752381 17.066667-4.87619 39.009524 14.628572 51.2s39.009524 4.87619 51.2-14.628571l43.885714-75.580952 60.952381-24.380953-34.133333 112.152381c-4.87619 12.190476 0 26.819048 9.752381 36.571429l104.838095 104.838095 51.2 119.466667c7.314286 19.504762 29.257143 26.819048 48.761905 19.504762 19.504762-7.314286 26.819048-29.257143 19.504762-48.761905l-56.076191-131.657143zM677.790476 226.742857l-34.133333-14.628571c-17.066667 41.447619-56.07619 70.704762-102.4 70.704762s-87.771429-29.257143-102.4-70.704762l-34.133333 14.628571c21.942857 53.638095 75.580952 92.647619 136.533333 92.647619s114.590476-36.571429 136.533333-92.647619zM334.019048 253.561905l-34.133334 14.628571c26.819048 68.266667 80.457143 121.904762 148.72381 146.285714 2.438095-12.190476 4.87619-24.380952 12.190476-34.133333-56.07619-21.942857-102.4-68.266667-126.780952-126.780952zM780.190476 268.190476l-34.133333-14.628571c-19.504762 48.761905-53.638095 87.771429-97.52381 112.152381 7.314286 9.752381 12.190476 21.942857 17.066667 34.133333 51.2-29.257143 92.647619-75.580952 114.590476-131.657143zM636.342857 509.561905c-14.628571 4.87619-29.257143 7.314286-43.885714 9.752381l-4.876191 19.504762-4.87619 19.504762c146.285714-14.628571 268.190476-112.152381 319.390476-243.809524l-34.133333-14.628572c-41.447619 102.4-126.780952 180.419048-231.619048 209.676191zM385.219048 526.628571l9.752381-36.571428c-82.895238-36.571429-146.285714-107.27619-180.419048-190.171429l-34.133333 14.628572c36.571429 95.085714 112.152381 170.666667 204.8 212.114285zM614.4 173.104762c19.504762 0 36.571429-17.066667 36.571429-36.571429V99.961905c0-19.504762-17.066667-36.571429-36.571429-36.571429h-129.219048c-19.504762 0-36.571429 17.066667-36.571428 36.571429v36.571428c0 19.504762 17.066667 36.571429 36.571428 36.571429h129.219048z m-92.647619-73.142857h56.07619v36.571428h-56.07619V99.961905z" p-id="4266" fill="#d4237a"></path></svg>