<?xml version="1.0" standalone="no"?><!DOCTYPE svg PUBLIC "-//W3C//DTD SVG 1.1//EN" "http://www.w3.org/Graphics/SVG/1.1/DTD/svg11.dtd"><svg class="icon" width="200px" height="200.00px" viewBox="0 0 1024 1024" version="1.1" xmlns="http://www.w3.org/2000/svg"><path d="M230.75 62c-31.106 0-56.25 25.144-56.25 56.25v787.5c0 31.106 25.144 56.25 56.25 56.25h168.75v-900h-168.75zM297.575 909.294c-31.050 0-56.25-25.2-56.25-56.25s25.2-56.25 56.25-56.25 56.25 25.2 56.25 56.25-25.256 56.25-56.25 56.25zM455.75 62h112.5v900h-112.5v-900zM793.25 62h-168.75v900h168.75c31.106 0 56.25-25.144 56.25-56.25v-787.5c0-31.106-25.144-56.25-56.25-56.25z" fill="#ffbf00" /></svg>