<?xml version="1.0" encoding="utf-8"?>
<!-- Generator: Adobe Illustrator 22.1.0, SVG Export Plug-In . SVG Version: 6.00 Build 0)  -->
<svg version="1.1" id="图层_1" xmlns="http://www.w3.org/2000/svg" xmlns:xlink="http://www.w3.org/1999/xlink" x="0px" y="0px"
	 viewBox="0 0 200 200" style="enable-background:new 0 0 200 200;" xml:space="preserve">
<style type="text/css">
	.st0{fill:#FFBF00;}
</style>
<path class="st0" d="M51.9,23c-5.3,0-9.6,4.3-9.6,9.6v134.8c0,5.3,4.3,9.6,9.6,9.6h28.9V23H51.9z M63.3,168c-5.3,0-9.6-4.3-9.6-9.6
	c0-5.3,4.3-9.6,9.6-9.6s9.6,4.3,9.6,9.6C72.9,163.7,68.6,168,63.3,168z M90.4,23h19.3v154H90.4V23z M148.1,23h-28.9v154h28.9
	c5.3,0,9.6-4.3,9.6-9.6V32.6C157.8,27.3,153.4,23,148.1,23z"/>
</svg>
