<?xml version="1.0" encoding="utf-8"?>
<!-- Generator: Adobe Illustrator 22.1.0, SVG Export Plug-In . SVG Version: 6.00 Build 0)  -->
<svg version="1.1" id="图层_1" xmlns="http://www.w3.org/2000/svg" xmlns:xlink="http://www.w3.org/1999/xlink" x="0px" y="0px"
	 viewBox="0 0 200 200" style="enable-background:new 0 0 200 200;" xml:space="preserve">
<style type="text/css">
	.st0{fill:#45ADFF;}
</style>
<path class="st0" d="M109.4,27.4c4,6.1,7.3,11.2,9.9,15.3c2.7,4.1,1.3,9.6-3.1,12.1c-4.4,2.5-10.1,1.2-12.7-2.9l-2.3-3.5
	c-20.3,31-32.3,54-35.9,68.5c-1.2,4.7-6.1,7.7-11.1,6.6s-8.1-5.8-6.9-10.6c4.6-18.8,19.9-47,46-85.5h0c1.6-2.6,4.6-4.4,8-4.4
	C104.8,23,107.8,24.8,109.4,27.4z M78.9,172.5c-4.7-2-6.8-7.2-4.7-11.6c2.1-4.4,7.5-6.4,12.2-4.5c4.7,2,9.8,3,15,3
	c20.4,0,37-15.8,37-35.2c0-5.1-2.2-12.9-6.7-23c-2-4.5,0.2-9.6,4.9-11.5c4.7-1.9,10.1,0.2,12.1,4.7c5.4,12.1,8.1,22,8.1,29.8
	c0,29.2-24.9,52.8-55.5,52.8C93.5,177,85.9,175.5,78.9,172.5z M154.5,36.8l0.7,0.6c3.8,3.1,4.4,8.6,1.3,12.4L56.8,172.9
	c-3.1,3.8-8.6,4.4-12.4,1.3c0,0,0,0,0,0l-0.7-0.6c-3.8-3.1-4.4-8.6-1.3-12.4c0,0,0,0,0,0l99.7-123.1
	C145.2,34.4,150.7,33.8,154.5,36.8C154.5,36.8,154.5,36.8,154.5,36.8L154.5,36.8z M98,152.8c-3.8,0-6.9-3-6.9-6.6
	c0-3.6,3.1-6.6,6.9-6.6c8.9,0,16.2-6.9,16.2-15.4c0-3.6,3.1-6.6,6.9-6.6c3.8,0,6.9,3,6.9,6.6C128,140,114.6,152.8,98,152.8L98,152.8
	z"/>
</svg>
