<?xml version="1.0" standalone="no"?><!DOCTYPE svg PUBLIC "-//W3C//DTD SVG 1.1//EN" "http://www.w3.org/Graphics/SVG/1.1/DTD/svg11.dtd"><svg t="1536544459814" class="icon" style="" viewBox="0 0 1024 1024" version="1.1" xmlns="http://www.w3.org/2000/svg" p-id="2725" xmlns:xlink="http://www.w3.org/1999/xlink" width="200" height="200"><defs><style type="text/css"></style></defs><path d="M575.312457 29.257143c26.448457 40.696686 48.391314 74.634971 65.887086 101.814857 17.729829 27.560229 8.6016 63.575771-20.392229 80.457143-29.023086 16.852114-66.911086 8.192-84.640914-19.397486l-15.008914-23.259428c-135.226514 206.0288-214.8352 358.8096-238.416457 455.241142-7.694629 31.480686-40.7552 51.053714-73.874286 43.739429s-53.745371-38.765714-46.050743-70.217143C193.3312 472.795429 295.058286 284.789029 468.5824 29.257143h0.087771c10.6496-17.495771 30.544457-29.257143 53.335772-29.257143 22.762057 0 42.656914 11.761371 53.306514 29.257143zM372.472686 994.011429c-31.100343-13.077943-45.114514-47.659886-31.3344-77.2096 13.750857-29.549714 50.117486-42.861714 81.217828-29.783772a256.058514 256.058514 0 0 0 99.649829 19.953372c135.957943 0 246.198857-104.799086 246.198857-234.057143 0-33.762743-14.453029-85.460114-44.324571-152.9856-13.165714-29.783771 1.521371-64.073143 32.855771-76.624457 31.363657-12.522057 67.437714 1.462857 80.632686 31.246628 35.664457 80.632686 53.950171 146.0224 53.950171 198.363429 0 193.887086-165.361371 351.085714-369.312914 351.085714-52.136229 0-102.838857-10.298514-149.533257-29.988571zM875.198171 92.042971l4.739658 3.832686a58.514286 58.514286 0 0 1 8.630857 82.300343L225.748114 996.703086a58.514286 58.514286 0 0 1-82.300343 8.660114l-4.739657-3.803429a58.514286 58.514286 0 0 1-8.630857-82.3296L792.868571 100.703086a58.514286 58.514286 0 0 1 82.300343-8.660115zM499.243886 863.085714c-25.512229 0-46.167771-19.6608-46.167772-43.885714s20.655543-43.885714 46.167772-43.885714c59.479771 0 107.7248-45.845943 107.7248-102.4 0-24.224914 20.655543-43.885714 46.167771-43.885715 25.482971 0 46.167771 19.6608 46.167772 43.885715 0 105.033143-89.585371 190.171429-200.060343 190.171428z" fill="#45ADFF" p-id="2726"></path></svg>