<?xml version="1.0" standalone="no"?><!DOCTYPE svg PUBLIC "-//W3C//DTD SVG 1.1//EN" "http://www.w3.org/Graphics/SVG/1.1/DTD/svg11.dtd">
<svg t="1536544171888" class="icon" style="" viewBox="0 0 1024 1024" version="1.1" xmlns="http://www.w3.org/2000/svg" p-id="1987" xmlns:xlink="http://www.w3.org/1999/xlink" width="200" height="200">
	<defs>
		<style type="text/css"></style>
	</defs>
	<path d="M1012.114905 478.870008s74.879438 181.144241-151.397264 411.952111l-201.700888-197.630518a233.470249 233.470249 0 0 1-116.991122 50.482821l5.939155 268.413987s-180.990643 75.007437-411.95211-151.422864l193.995345-198.014515a237.617418 237.617418 0 0 1-54.322793-123.391074l-263.780421 5.964755s-75.007437-181.067442 151.422864-412.02891l197.425719 193.611348a235.697432 235.697432 0 0 1 126.66785-52.274808L481.533285 11.878311s181.169841-74.879438 412.054509 151.397264l-197.37452 201.470489a233.905446 233.905446 0 0 1 48.818834 119.986301l267.082797-5.862357z m-598.881908 133.938196a143.102927 143.102927 0 0 0 200.216098-204.312068 143.256526 143.256526 0 0 0-202.340882 1.971185 143.205326 143.205326 0 0 0 2.124784 202.340883z m32.076559-169.009932a95.436084 95.436084 0 1 1 136.344578 133.554198 95.436084 95.436084 0 0 1-136.344578-133.554198z m449.455829-252.849304l124.466267 121.983085-35.225336 35.96773-124.466267-122.059884 35.225336-35.890931z m-55.039587 63.564323l117.067922 114.68714-34.201343 34.892538-117.067922-114.712739 34.201343-34.866939z m-46.540451 71.551464l92.850504 90.930518-26.367803 26.930998-92.824903-90.930518 26.342202-26.930998z m-36.479726 56.319577l73.906645 72.345058-23.398224 23.859021-73.906646-72.293858 23.398225-23.935821zM301.438635 0.972793l35.890931 35.174136-121.957485 124.415067L179.45555 125.464659 301.438635 0.998393z m56.217179 62.540331l34.866938 34.201343-114.63594 116.914323-34.866939-34.201343 114.635941-116.914323z m47.99964 70.60427L432.637651 160.510796l-90.956118 92.824904-26.930998-26.419002 90.930518-92.773704z m37.734117 55.423584l23.859021 23.398225-72.447457 73.906646-23.833421-23.398225 72.447456-73.906646zM39.731798 681.671687l124.543066 122.034285-35.225336 35.890931L4.506462 717.562618l35.225336-35.890931z m61.439539-55.346784l117.042322 114.712739-34.201343 34.866939-117.042322-114.71274 34.201343-34.866938z m62.71953-40.0125l92.876103 91.007317-26.291003 26.956598-92.850503-91.007318 26.291003-26.956597z m52.735604-34.636541l73.881046 72.447457-23.551823 23.98702-73.829846-72.447456 23.475024-23.987021z m590.945968 304.663315l35.814132 35.148537-122.059885 124.491866-35.737332-35.174136 121.983085-124.466267z m-62.59153-54.015594l34.918138 34.201343-114.68714 117.067922-34.969338-34.303743 114.73834-116.991122z m-63.717922-38.911709l26.930998 26.419002-90.930518 92.927303-27.007798-26.419002 91.007318-92.927303z m-53.145202-33.535748l23.807822 23.347025-72.447457 73.983445-23.859021-23.347025 72.498656-73.983445z" p-id="1988" fill="#1296db"></path>
</svg>