<?xml version="1.0" encoding="utf-8"?>
<!-- Generator: Adobe Illustrator 22.1.0, SVG Export Plug-In . SVG Version: 6.00 Build 0)  -->
<svg version="1.1" id="图层_1" xmlns="http://www.w3.org/2000/svg" xmlns:xlink="http://www.w3.org/1999/xlink" x="0px" y="0px"
	 viewBox="0 0 200 200" style="enable-background:new 0 0 200 200;" xml:space="preserve">
<style type="text/css">
	.st0{fill:#1296DB;}
</style>
<path class="st0" d="M173.3,95.1c0,0,11,26.5-22.2,60.3l-29.5-28.9c-4.9,4-10.8,6.6-17.1,7.4l0.9,39.3c0,0-26.5,11-60.3-22.2
	l28.4-29c-4.3-5.1-7.1-11.4-8-18.1l-38.6,0.9c0,0-11-26.5,22.2-60.4l28.9,28.4c5.3-4.3,11.7-7,18.6-7.7l-0.9-38.5
	c0,0,26.5-11,60.4,22.2L127,78.4c4,5.1,6.5,11.2,7.2,17.6L173.3,95.1L173.3,95.1z M85.5,114.8c8.5,7.8,21.8,7.3,29.6-1.2
	c7.5-8.1,7.4-20.7-0.3-28.7c-8.3-8.1-21.5-8-29.6,0.3C77.1,93.4,77.3,106.7,85.5,114.8z M90.2,90c5.3-5.6,14.2-5.8,19.8-0.4
	c5.6,5.3,5.8,14.2,0.4,19.8c-0.1,0.1-0.2,0.2-0.2,0.2c-5.5,5.4-14.3,5.4-19.8,0C85.1,104.2,85,95.5,90.2,90z M156.1,53l18.2,17.9
	l-5.2,5.3l-18.2-17.9C150.9,58.2,156.1,53,156.1,53z M148,62.3l17.1,16.8l-5,5.1L143,67.4L148,62.3z M141.2,72.8l13.6,13.3l-3.9,3.9
	l-13.6-13.3L141.2,72.8L141.2,72.8z M135.8,81l10.8,10.6l-3.4,3.5l-10.8-10.6L135.8,81L135.8,81z M69.2,25.1l5.3,5.2L56.5,48.5
	l-5.3-5.1L69.2,25.1L69.2,25.1z M77.4,34.3l5.1,5L65.7,56.4l-5.1-5C60.6,51.4,77.4,34.3,77.4,34.3z M84.4,44.6l4,3.9L75.1,62.1
	l-3.9-3.9L84.4,44.6L84.4,44.6z M90,52.8l3.5,3.4L82.8,67l-3.5-3.4L90,52.8L90,52.8z M30.8,124.9l18.2,17.9l-5.2,5.3l-18.2-17.9
	L30.8,124.9z M39.8,116.7L57,133.6l-5,5.1l-17.1-16.8L39.8,116.7L39.8,116.7z M49,110.9l13.6,13.3l-3.9,3.9l-13.6-13.3L49,110.9
	L49,110.9z M56.7,105.8l10.8,10.6l-3.4,3.5l-10.8-10.6L56.7,105.8L56.7,105.8z M143.3,150.4l5.2,5.1l-17.9,18.2l-5.2-5.2
	L143.3,150.4L143.3,150.4z M134.1,142.5l5.1,5l-16.8,17.1l-5.1-5L134.1,142.5L134.1,142.5z M124.8,136.8l3.9,3.9l-13.3,13.6l-4-3.9
	L124.8,136.8L124.8,136.8z M117,131.9l3.5,3.4l-10.6,10.8l-3.5-3.4L117,131.9z"/>
</svg>
